<svg xmlns="http://www.w3.org/2000/svg" width="42" height="42" viewBox="0 0 42 42" fill="none">
    <g clip-path="url(#clip0_3_57)">
        <mask id="mask0_3_57" width="42" height="42" x="0" y="0" maskUnits="userSpaceOnUse" style="mask-type:luminance">
            <path fill="#fff" d="M0 0h42v42H0V0Z"/>
        </mask>
        <g mask="url(#mask0_3_57)">
            <path fill="#171F34" d="M38 0H4a4 4 0 0 0-4 4v34a4 4 0 0 0 4 4h34a4 4 0 0 0 4-4V4a4 4 0 0 0-4-4Z"/>
            <path fill="#fff" d="M1 4a3 3 0 0 1 3-3h9v12H1V4Z"/>
            <path fill="#FFA000" d="M10.5 4h-4l-1-1H3c-.55 0-1 .45-1 1v6c0 .55.45 1 1 1h7.75c.425 0 .75-.325.75-.75V5c0-.55-.45-1-1-1Z"/>
            <path fill="#FFCA28" d="M11.55 5.5H4.825c-.475 0-.9.35-.975.825L3 11h7.925c.475 0 .9-.35.975-.825l.625-3.5c.125-.6-.35-1.175-.975-1.175Z"/>
            <path fill="#fff" d="M27 15H15v12h12V15Z"/>
            <path fill="#009688" d="M24.25 24.75h-6.5l-1.5 1.5v-8.5c0-.825.675-1.5 1.5-1.5h6.5c.825 0 1.5.675 1.5 1.5v5.5c0 .825-.675 1.5-1.5 1.5Z"/>
            <path fill="#fff" d="M21 21.25a.75.75 0 1 0 0-1.5.75.75 0 0 0 0 1.5Zm2.5 0a.75.75 0 1 0 0-1.5.75.75 0 0 0 0 1.5Zm-5 0a.75.75 0 1 0 0-1.5.75.75 0 0 0 0 1.5ZM27 29H15v12h12V29Z"/>
            <path fill="#616161" d="m23 36.29-.706.708 3.005 3.004.707-.707L23 36.29Z"/>
            <path fill="#616161" d="M20 38a4 4 0 1 0 0-8 4 4 0 0 0 0 8Z"/>
            <path fill="#37474F" d="m23.82 37.128-.708.707 2.174 2.174.707-.707-2.173-2.174Z"/>
            <path fill="#64B5F6" d="M20 37.25a3.25 3.25 0 1 0 0-6.5 3.25 3.25 0 0 0 0 6.5Z"/>
            <path fill="#BBDEFB" d="M21.725 32.55a2.26 2.26 0 0 0-3.45 0c-.1.1-.075.275.025.35.1.1.275.075.35-.025a1.772 1.772 0 0 1 2.7 0c.05.05.125.1.2.1.05 0 .125-.025.15-.05.1-.1.1-.275.025-.375Z"/>
            <path fill="#fff" d="M13 15H1v12h12V15Z"/>
            <path fill="#8BC34A" d="M10.75 18.75c0-.55-.45-1-1-1h-1.5c-.175 0-.275-.2-.175-.35.15-.25.225-.55.15-.875-.1-.5-.475-.9-.95-1A1.25 1.25 0 0 0 5.75 16.75c0 .25.075.45.175.65.1.15 0 .35-.2.35h-1.5c-.55 0-1 .45-1 1v1.75c0 .175.2.275.35.175.25-.15.55-.225.875-.15.5.1.9.475 1 .95A1.26 1.26 0 0 1 4.225 23c-.25 0-.45-.075-.65-.175-.125-.1-.325 0-.325.175v1.5c0 .55.45 1 1 1h5.5c.55 0 1-.45 1-1v-5.75Z"/>
            <path fill="#fff" d="M41 15H29v12h12V15Z"/>
            <path fill="#F57C00" d="M36.25 20.75h-2.5l-3-3.5h8.5l-3 3.5Z"/>
            <path fill="#FF9800" d="m36.25 24.5-2.5 1.5v-5.25h2.5v3.75Zm3.125-7.25h-8.75a.384.384 0 0 1-.375-.375c0-.2.175-.375.375-.375h8.75c.2 0 .375.175.375.375s-.175.375-.375.375Z"/>
            <path fill="#fff" d="M27 1H15v12h12V1Z"/>
            <path fill="#37474F" d="M23.25 6.5a1.5 1.5 0 1 0 0-3 1.5 1.5 0 0 0 0 3Zm-4.5 0a1.5 1.5 0 1 0 0-3 1.5 1.5 0 0 0 0 3Z"/>
            <path fill="#37474F" d="M26.675 7.25 22.85 8h-3.675l-3.825-.75 1.075-1.975A1.534 1.534 0 0 1 17.75 4.5h6.55c.55 0 1.05.3 1.325.775l1.05 1.975Z"/>
            <path fill="#37474F" d="M24.5 11a2.5 2.5 0 1 0 0-5 2.5 2.5 0 0 0 0 5Zm-7 0a2.5 2.5 0 1 0 0-5 2.5 2.5 0 0 0 0 5Z"/>
            <path fill="#37474F" d="M21 9.25a1.25 1.25 0 1 0 0-2.5 1.25 1.25 0 0 0 0 2.5Z"/>
            <path fill="#546E7A" d="M21 8.5a.5.5 0 1 0 0-1 .5.5 0 0 0 0 1Z"/>
            <path fill="#A0F" d="M24.5 10.25a1.75 1.75 0 1 0 0-3.5 1.75 1.75 0 0 0 0 3.5Zm-7 0a1.75 1.75 0 1 0 0-3.5 1.75 1.75 0 0 0 0 3.5Z"/>
            <path fill="#CE93D8" d="M25.425 7.925A1.24 1.24 0 0 0 24.5 7.5c-.35 0-.7.15-.925.425-.1.1-.075.25.025.35.1.1.25.075.35-.025a.77.77 0 0 1 1.125 0 .27.27 0 0 0 .175.075.27.27 0 0 0 .175-.075c.1-.075.1-.225 0-.325ZM17.5 7.5c-.35 0-.7.15-.925.425-.1.1-.075.25.025.35.1.1.25.075.35-.025a.77.77 0 0 1 1.125 0 .27.27 0 0 0 .175.075.27.27 0 0 0 .175-.075c.1-.1.1-.25.025-.35-.25-.25-.6-.4-.95-.4Z"/>
            <path fill="#fff" d="M1 29h12v12H4a3 3 0 0 1-3-3v-9Z"/>
            <path fill="#90CAF9" d="M9.25 39.5h-7V30H7l2.25 2.25v7.25Z"/>
            <path fill="#E1F5FE" d="M8.875 32.5H6.75v-2.125L8.875 32.5Z"/>
            <path fill="#616161" d="m10.121 37.9-.495.495 2.121 2.121.495-.495-2.12-2.12-.001-.001Z"/>
            <path fill="#616161" d="M8 39a2.75 2.75 0 1 0 0-5.5A2.75 2.75 0 0 0 8 39Z"/>
            <path fill="#90CAF9" d="M8 38.5A2.25 2.25 0 1 0 8 34a2.25 2.25 0 0 0 0 4.5Z"/>
            <path fill="#37474F" d="m10.707 38.475-.495.495 1.538 1.538.495-.495-1.538-1.538Z"/>
            <path fill="#1976D2" d="M8.5 36.75H6.075c.1.4.325.75.625 1h1.8v-1Zm-2.425-1H8.5v-1H6.675c-.3.25-.5.6-.6 1ZM6.025 34H3.75v.5h1.825c.125-.175.275-.35.45-.5Zm-.75 1H3.75v.5H5.1c.05-.175.1-.35.175-.5ZM5 36.25c0-.075 0-.175.025-.25H3.75v.5h1.275C5 36.425 5 36.325 5 36.25Zm.1.75H3.75v.5h1.525c-.075-.15-.125-.325-.175-.5Z"/>
            <path fill="#fff" d="M29 1h9a3 3 0 0 1 3 3v9H29V1Z"/>
            <path fill="#5C6BC0" d="M39 11c-1.725 0-4 1-4 1V6.5s2.25-1 4.5-1L39 11Z"/>
            <path fill="#7986CB" d="M31 11c1.725 0 4 1 4 1V6.5s-2.25-1-4.5-1L31 11Z"/>
            <path fill="#FFB74D" d="M35 6a2 2 0 1 0 0-4 2 2 0 0 0 0 4Zm4.25 3h.25c.15 0 .25-.1.25-.25v-1c0-.15-.1-.25-.25-.25h-.25a.737.737 0 0 0-.75.75c0 .425.325.75.75.75Zm-8.5-1.5h-.25c-.15 0-.25.1-.25.25v1c0 .15.1.25.25.25h.25c.425 0 .75-.325.75-.75a.736.736 0 0 0-.75-.75Z"/>
            <mask id="mask1_3_57" width="12" height="12" x="29" y="29" maskUnits="userSpaceOnUse" style="mask-type:luminance">
                <path fill="#fff" d="M29 29h12v9a3 3 0 0 1-3 3h-9V29Z"/>
            </mask>
            <g mask="url(#mask1_3_57)">
                <path fill="#fff" d="M29 29h12v9a3 3 0 0 1-3 3h-9V29Z"/>
                <path fill="#fff" d="M34.48 33.219c.047.06.07.121.07.182a.393.393 0 0 1 0 .105.536.536 0 0 1-.007.098.323.323 0 0 1-.098.14.465.465 0 0 1-.05.042.545.545 0 0 1-.244.056l-.091.014h-.491v.119c-.004.42.003.84.022 1.26.023.42.02.84-.007 1.26-.014.14-.035.285-.063.434a1.6 1.6 0 0 1-.14.413c-.06.126-.142.243-.245.35-.11.112-.244.198-.392.252-.33.12-.68.162-1.029.126a2.086 2.086 0 0 1-.511-.119 1.184 1.184 0 0 1-.413-.252 1.042 1.042 0 0 1-.168-.203.819.819 0 0 1-.105-.259.51.51 0 0 1 .014-.266.378.378 0 0 1 .196-.217c.089-.051.168-.063.238-.035.078.03.15.075.21.133.07.06.14.124.21.189.07.063.154.106.245.126.191.047.348.049.469.007a.614.614 0 0 0 .287-.217.916.916 0 0 0 .147-.357c.033-.14.051-.282.056-.427.01-.14.012-.28.007-.42a4.087 4.087 0 0 1 0-.343c.005-.247.005-.49 0-.728s-.007-.48-.007-.728v-.028a.097.097 0 0 0 .007-.042h-.021a1.346 1.346 0 0 0-.175-.007 5.494 5.494 0 0 0-.287-.007h-.294a4.264 4.264 0 0 0-.175-.007h-.098v-.007a.969.969 0 0 1-.112-.021l-.112-.028a.397.397 0 0 1-.203-.133.249.249 0 0 1-.056-.112.751.751 0 0 1-.014-.133v-.077c0-.028.005-.054.014-.077a.23.23 0 0 1 .098-.14.39.39 0 0 1 .133-.063.743.743 0 0 1 .098-.021l.105-.014a.683.683 0 0 1 .098-.007h.875c.037 0 .08-.002.126-.007h.539c.177 0 .35.002.518.007h.042c.051 0 .1.002.147.007h.154a.916.916 0 0 1 .3.063c.073.017.138.06.183.119Zm4.74.042a.29.29 0 0 1 .076.189.71.71 0 0 1-.007.091.415.415 0 0 1-.007.077.335.335 0 0 1-.09.147.393.393 0 0 1-.155.063.746.746 0 0 1-.098.021.687.687 0 0 1-.203.028h-.462a4.51 4.51 0 0 1-.252.007h-.238c.005.145.007.301.007.469 0 .163-.002.355-.007.574 0 .22-.002.474-.007.763v1.54c0 .047.002.082.007.105v.056a.319.319 0 0 1-.007.056.923.923 0 0 0-.02.147.368.368 0 0 1-.028.133c-.02.019-.029.033-.029.042l-.02.042a.36.36 0 0 1-.134.133.502.502 0 0 1-.343.035.36.36 0 0 1-.182-.063.423.423 0 0 1-.09-.126.388.388 0 0 1-.05-.147.417.417 0 0 1-.02-.133v-3.598h-.464l-.28-.014a2.45 2.45 0 0 1-.455-.063.488.488 0 0 1-.23-.133.306.306 0 0 1-.078-.203v-.084c0-.028.005-.054.014-.077a.23.23 0 0 1 .112-.14.563.563 0 0 1 .084-.049.968.968 0 0 1 .33-.091.895.895 0 0 1 .111-.007h.581c.15 0 .306-.002.47-.007.27-.005.538-.005.804 0 .27 0 .54.005.805.014.06.005.12.012.175.021a.81.81 0 0 1 .168.049.558.558 0 0 1 .12.056.247.247 0 0 1 .09.077h.002Z"/>
                <path fill="url(#paint0_linear_3_57)" d="M34.55 33.401h-.2v.017l.003.016.197-.033Zm0 .105-.199-.022-.001.01v.012h.2Zm-.007.098.191.057.003-.008.002-.01-.196-.039Zm-.098.14-.135-.148-.007.007.142.141Zm-.05.042.09.179.017-.008.014-.011-.121-.16Zm-.153.049v.2h.016l.017-.003-.033-.197Zm-.182.021v.2h.016l.017-.003-.033-.197Zm-.49 0v-.2h-.2v.2h.2Zm0 .119.2.002v-.002h-.2Zm.02 1.26-.199.009v.002l.199-.011Zm-.006 1.26.199.02v-.007l-.199-.013Zm-.203.847-.179-.09-.001.003.18.087Zm-2.59.357.138-.144-.002-.003-.136.147Zm-.168-.203-.17.104.002.005.168-.109Zm-.091-.525.19.063v-.003l-.19-.06Zm.196-.217.096.176.004-.003-.1-.173Zm.238-.035-.074.186.004.001.07-.187Zm.21.133-.136.147.005.004.13-.151h.001Zm.21.189-.137.146.005.005.132-.151Zm.245.126.047-.194-.006-.002-.041.196Zm.469.007.065.19.007-.003-.072-.187Zm.434-.574-.195-.046-.001.007.196.039Zm.056-.427-.2-.013v.007l.2.006Zm.007-.763.2.01v-.006l-.2-.004Zm-.007-1.484-.179-.09-.021.043v.047h.2Zm.007-.042h.2v-.2h-.2v.2Zm-.021 0-.033.197.016.003h.017v-.2Zm-.175-.007-.01.2h.01v-.2Zm-.581-.007-.01.2h.01v-.2Zm-.273-.007h-.2v.2h.2v-.2Zm0-.007h.2v-.177l-.175-.022-.025.199Zm-.224-.049-.06.191.011.003.049-.194Zm-.203-.133.158-.122-.008-.01-.009-.01-.141.142Zm-.056-.112-.197.036.002.008.002.009.193-.053Zm0-.287.186.074.007-.018.004-.02-.197-.036Zm.23-.203.053.193h.003l-.056-.193Zm.204-.035.025.199.003-.001-.028-.198Zm1.099-.014v-.2h-.01l-.01.001.02.199Zm1.057.007-.006.2h.006v-.2Zm.189.007-.02.199.01.001h.01v-.2Zm.154 0 .009-.2h-.01v.2h.001Zm.3.063-.073.186.012.005.013.003.048-.194Zm.024.24c.027.036.029.055.029.061h.4a.498.498 0 0 0-.112-.304l-.317.243Zm.032.094a.214.214 0 0 1-.002.05l.398.044a.591.591 0 0 0-.002-.16l-.394.066Zm-.003.072c0 .02 0 .04-.003.059l.392.078a.722.722 0 0 0 .01-.137h-.399Zm.001.04s0 .005-.007.013a.239.239 0 0 1-.034.037l.27.296a.521.521 0 0 0 .154-.231l-.383-.115Zm-.048.057a.247.247 0 0 1-.027.023l.24.32a.655.655 0 0 0 .07-.06l-.283-.283Zm.003.004a.346.346 0 0 1-.043.017l.126.38a.72.72 0 0 0 .096-.039l-.179-.358Zm-.043.017a.345.345 0 0 1-.054.014l.066.394a.756.756 0 0 0 .114-.028l-.126-.38Zm-.021.011c-.04 0-.08.003-.12.009l.057.396a.443.443 0 0 1 .063-.005v-.4Zm-.12.009a5.07 5.07 0 0 0-.095.015l.066.394.086-.013-.057-.396Zm-.062.012h-.092v.4h.092v-.4Zm-.091 0h-.399l-.001.4h.4v-.4Zm-.599.2-.001.119h.401l-.001-.119h-.399Zm-.001.117c-.004.424.003.848.022 1.271l.4-.018a22.42 22.42 0 0 1-.021-1.249l-.401-.004Zm.022 1.273c.023.412.02.824-.007 1.236l.399.026c.028-.428.031-.856.008-1.284l-.4.022Zm-.006 1.23c-.014.14-.034.278-.06.416l.392.075c.03-.155.051-.306.066-.452l-.398-.04v.001Zm-.06.416a1.39 1.39 0 0 1-.123.36l.358.18c.073-.147.126-.303.157-.465l-.392-.075Zm-.124.363c-.051.106-.12.206-.21.299l.29.276c.116-.121.21-.255.28-.401l-.36-.174Zm-.21.299a.856.856 0 0 1-.319.203l.142.374c.183-.07.341-.17.466-.3l-.289-.277Zm-.317.203c-.134.05-.282.086-.446.108l.052.396c.19-.025.369-.068.534-.13l-.14-.374Zm-.446.108a2.106 2.106 0 0 1-.493.006l-.041.398c.197.02.393.018.586-.008l-.052-.396Zm-.493.006a1.886 1.886 0 0 1-.462-.108l-.139.376c.18.066.366.11.56.13l.041-.398Zm-.462-.108a.983.983 0 0 1-.344-.208l-.276.288c.134.129.296.227.481.296l.14-.375-.001-.001Zm-.346-.211a.848.848 0 0 1-.136-.165l-.336.218c.06.091.126.172.2.241l.272-.294Zm-.133-.16a.618.618 0 0 1-.08-.196l-.392.081c.024.113.069.221.131.323l.341-.208Zm-.08-.194a.312.312 0 0 1 .008-.164l-.38-.126a.713.713 0 0 0-.02.369l.392-.079Zm.008-.167c.008-.027.033-.063.102-.101l-.191-.352a.58.58 0 0 0-.292.333l.381.12Zm.106-.104a.163.163 0 0 1 .055-.022h.009l.148-.372a.467.467 0 0 0-.412.048l.2.346Zm.068-.02c.054.02.102.052.144.092l.272-.294a.838.838 0 0 0-.276-.173l-.14.374v.001Zm.149.096c.068.06.136.12.204.184l.273-.292a8.23 8.23 0 0 0-.215-.194l-.262.302Zm.21.188c.097.086.21.145.335.172l.082-.392a.338.338 0 0 1-.154-.08l-.264.301.001-.001Zm.329.17c.21.052.41.063.581.003l-.13-.379c-.071.024-.184.03-.357-.012l-.094.388Zm.588 0a.813.813 0 0 0 .378-.288l-.326-.232a.414.414 0 0 1-.196.146l.144.374Zm.378-.288c.089-.125.148-.271.18-.434l-.392-.078a.719.719 0 0 1-.114.28l.326.232Zm.179-.428c.035-.153.055-.31.06-.466l-.399-.012c-.004.131-.021.26-.051.387l.39.091Zm.06-.46c.01-.15.013-.297.008-.439l-.4.014c.004.133.002.267-.007.4l.4.026-.001-.001Zm.008-.439a3.938 3.938 0 0 1 0-.326l-.4-.02c-.005.1-.005.221 0 .36l.4-.014Zm0-.332c.005-.25.005-.495 0-.736l-.4.008c.005.235.005.475 0 .72l.4.008Zm0-.736a36.4 36.4 0 0 1-.007-.724h-.4c0 .249.002.493.007.732l.4-.008Zm-.007-.724v-.028h-.4v.028h.4Zm-.021.061a.294.294 0 0 0 .028-.131h-.4v-.008a.138.138 0 0 1 .014-.04l.358.179Zm-.172-.331h-.021v.4h.02l.001-.4Zm.012.003a1.49 1.49 0 0 0-.208-.01v.4c.044 0 .088 0 .132.003l.01.001.066-.394Zm-.198-.01a5.658 5.658 0 0 0-.297-.007v.4c.1 0 .193.003.277.007l.02-.4Zm-.297-.007h-.295l.001.4h.295v-.4h-.001Zm-.283 0a4.269 4.269 0 0 0-.186-.007v.4c.022 0 .076.002.165.007l.021-.4Zm-.186-.007h-.098v.4h.098v-.4Zm.102.2v-.007h-.4v.007h.4Zm-.175-.206a.725.725 0 0 1-.089-.016l-.097.388c.045.011.09.02.136.025l.05-.397Zm-.089-.016-.112-.028-.097.388.112.028.097-.388Zm-.1-.025a.202.202 0 0 1-.105-.064l-.317.244c.077.1.182.165.302.202l.12-.382Zm-.122-.084c.007.006.008.011.006.007a.168.168 0 0 1-.01-.03l-.386.106a.445.445 0 0 0 .108.2l.282-.283Zm0-.006a.554.554 0 0 1-.011-.097h-.4c0 .053.006.11.017.169l.394-.072Zm-.011-.097v-.077l-.4-.001v.078h.4Zm0-.077v-.003l-.372-.148a.395.395 0 0 0-.028.15l.4.001Zm.011-.041c0 .005-.003.007-.001.005a.107.107 0 0 1 .022-.021l-.24-.32a.428.428 0 0 0-.175.264l.394.072Zm.021-.016a.186.186 0 0 1 .065-.03l-.105-.386a.592.592 0 0 0-.2.096l.24.32Zm.068-.03a.54.54 0 0 1 .071-.016l-.056-.396a.922.922 0 0 0-.125.027l.11.385Zm.071-.016.102-.013-.05-.397-.108.014.056.396Zm.105-.014a.497.497 0 0 1 .07-.005v-.4a.885.885 0 0 0-.126.009l.056.396Zm.07-.005h.104v-.4h-.104v.4Zm.104 0h.673v-.4H31.7v.4Zm.673 0h.099v-.4h-.099v.4Zm.099 0c.045 0 .093-.003.145-.008l-.04-.398a.921.921 0 0 1-.105.006v.4Zm.125-.007h.539v-.4h-.539v.4Zm.538 0c.175 0 .347.002.513.007l.011-.4a17.879 17.879 0 0 0-.523-.007l-.001.4Zm.519.007h.042v-.4h-.042v.4Zm.042 0c.045 0 .087.002.127.006l.04-.398a1.693 1.693 0 0 0-.167-.008v.4Zm.147.007h.154v-.4h-.155l.001.4Zm.145 0c.087.004.165.02.236.049l.148-.372a1.11 1.11 0 0 0-.366-.077l-.018.4Zm.261.057a.12.12 0 0 1 .072.046l.317-.243a.52.52 0 0 0-.292-.191l-.097.388Zm4.97-.033-.163.116.005.007.005.006.153-.129Zm.07.28-.198-.028-.002.014v.014h.2Zm-.007.077.194.053.002-.014-.196-.039Zm-.09.147.12.16.01-.008.01-.01-.14-.142Zm-.155.063-.042-.196-.013.004.055.192Zm-.203.042.028.198.01-.002.01-.002-.048-.194Zm-.56.007v-.2h-.011l.011.2Zm-.49.007v-.2h-.206l.006.206.2-.006Zm0 1.043-.2-.004v.004h.2Zm-.007.763-.2-.003v.003h.2Zm.007 1.645h.2v-.02l-.004-.02-.196.04Zm-.007.112.195.043.001-.004-.196-.039Zm-.02.147-.2-.017v.017h.2Zm-.008.07.194.049.002-.01-.196-.039Zm-.02.063.14.141.03-.029.015-.038-.185-.074Zm-.029.042.179.09.021-.043v-.047h-.2Zm-.154.175.09.179.01-.005.008-.006-.108-.168Zm-.343.035.043-.195-.01-.002-.01-.002-.023.199Zm-.182-.063-.141.141.008.01.01.007.123-.158Zm-.09-.126.182-.081-.004-.008-.003-.007-.175.096Zm-.05-.147.2-.02-.003-.022-.007-.021-.19.063Zm-.02-3.731h.2v-.2h-.2v.2Zm-.463 0-.01.2h.01v-.2Zm-.462-.028-.033.197.005.001.028-.198Zm-.133-.021-.033.197h.003l.03-.197Zm-.14-.028-.055.192.007.002.048-.194Zm-.23-.133-.154.13.006.006.148-.136Zm-.064-.364.186.074.005-.012.003-.014-.194-.048Zm.112-.14.105.17.008-.005.007-.005-.12-.16Zm.084-.049.09.18.007-.005-.097-.175Zm.12-.049.048.194.007-.002.007-.002-.063-.19h.001Zm.21-.042.021.199h.003l-.024-.199Zm1.161-.014-.003-.2h-.003l.006.2Zm.805 0-.003.2h.003v-.2Zm.805.014.015-.2h-.008l-.007.2Zm.343.07-.077.185.007.002.007.003.063-.19Zm.12.056-.107.17.008.005.009.004.09-.179Zm-.063.206c.028.033.03.052.03.06h.4a.49.49 0 0 0-.124-.318l-.306.258Zm.03.06a.457.457 0 0 1-.005.063l.396.056c.006-.04.01-.08.01-.119h-.401Zm-.007.091c0 .017-.001.03-.003.038l.392.078a.602.602 0 0 0 .011-.116h-.4Zm0 .024a.14.14 0 0 1-.04.059l.284.282a.533.533 0 0 0 .142-.235l-.386-.106Zm-.018.04a.211.211 0 0 1-.076.027l.084.392a.595.595 0 0 0 .233-.099l-.241-.32Zm-.089.03a.524.524 0 0 1-.071.016l.056.396a.922.922 0 0 0 .125-.027l-.11-.384v-.001Zm-.071.016c-.04.006-.083.014-.125.025l.096.388a.846.846 0 0 1 .085-.017l-.056-.396Zm-.105.021a.483.483 0 0 1-.07.005v.4a.885.885 0 0 0 .126-.009l-.056-.396Zm-.07.005h-.106v.4h.106v-.4Zm-.104 0h-.358v.4h.356l.002-.4Zm-.369 0c-.08.005-.16.007-.24.007v.4c.087 0 .174-.002.262-.007l-.022-.4Zm-.24.007h-.239l-.001.4h.24v-.4Zm-.439.206c.005.143.007.297.007.463h.4c0-.17-.002-.328-.007-.475l-.4.012Zm.007.463c0 .161-.002.351-.007.57l.4.008c.005-.22.007-.413.007-.578h-.4Zm-.007.574c0 .218-.002.471-.007.76l.4.006c.005-.29.007-.545.007-.766h-.4Zm-.007.763v1.008h.4V35.69h-.4Zm0 1.008v.532h.4v-.532h-.4Zm0 .532c0 .05.002.1.01.144l.393-.078v-.005l-.002-.013c0-.016-.002-.032-.001-.048h-.4Zm.007.105v.056h.4v-.056h-.4Zm0 .056c0-.004 0-.004 0 0l-.003.017.392.078a.497.497 0 0 0 .011-.095h-.4Zm-.002.013c-.012.053-.02.11-.025.173l.398.034c.005-.05.01-.091.017-.121l-.39-.086Zm-.025.19c0 .01-.001.02-.004.03l.392.079a.547.547 0 0 0 .011-.109h-.399Zm-.002.021a.293.293 0 0 1-.013.038l.372.148a.702.702 0 0 0 .029-.088l-.388-.098Zm.032-.03a.363.363 0 0 0-.046.056.231.231 0 0 0-.04.128h.399a.18.18 0 0 1-.027.093c-.005.009-.009.011-.004.006l-.282-.283Zm-.066.095-.02.042.357.178.02-.042-.357-.178Zm-.02.042c-.002.002-.014.022-.063.054l.216.336a.555.555 0 0 0 .204-.212l-.357-.178Zm-.044.043a.303.303 0 0 1-.21.019l-.087.39a.7.7 0 0 0 .476-.051l-.179-.358Zm-.231.015c-.06-.007-.079-.02-.082-.022l-.246.316c.083.06.18.096.282.104l.046-.398Zm-.063-.005a.232.232 0 0 1-.05-.066l-.366.162a.61.61 0 0 0 .133.186l.283-.282Zm-.057-.081a.186.186 0 0 1-.025-.071l-.399.04a.585.585 0 0 0 .072.223l.352-.192Zm-.035-.114a.218.218 0 0 1-.01-.07h-.4c0 .067.01.133.03.196l.38-.126Zm-.01-.07v-3.598h-.4v3.598h.4Zm-.2-3.798h-.176v.4h.175l.001-.4Zm-.176 0h-.287v.4h.287v-.4Zm-.278 0-.278-.014-.021.4.28.014.019-.4Zm-.278-.014a2.275 2.275 0 0 1-.165-.012l-.056.396c.042.006.112.011.2.016l.02-.4h.001Zm-.16-.011-.136-.022-.06.395.13.021.066-.394Zm-.133-.021a1.639 1.639 0 0 1-.124-.025l-.097.388c.044.011.096.021.155.031l.066-.394Zm-.118-.023a.29.29 0 0 1-.139-.077l-.294.272c.088.092.2.157.323.189l.11-.384Zm-.133-.07a.107.107 0 0 1-.03-.074h-.4c0 .125.044.239.124.333l.306-.259Zm-.03-.074v-.085h-.4v.085h.4Zm0-.085v-.002l-.372-.148a.395.395 0 0 0-.028.15h.4Zm.008-.028a.098.098 0 0 1 .023-.018l-.21-.34a.43.43 0 0 0-.201.261l.388.097Zm.038-.028a.412.412 0 0 1 .054-.029l-.18-.359a.768.768 0 0 0-.114.068l.24.32Zm.061-.034a.303.303 0 0 1 .07-.03l-.096-.388a.69.69 0 0 0-.168.068l.194.35Zm.085-.034a.846.846 0 0 1 .169-.033l-.044-.398c-.093.01-.178.027-.251.051l.126.38Zm.172-.033a.704.704 0 0 1 .087-.006v-.4c-.046 0-.091.003-.137.008l.05.398Zm.087-.006h.12v-.4h-.12v.4Zm.12 0h.461l.001-.4h-.462v.4Zm.46 0c.152 0 .31-.002.476-.007l-.012-.4c-.161.005-.315.007-.462.007l-.001.4h-.001Zm.474-.007c.268-.005.534-.005.798 0l.007-.4a21.98 21.98 0 0 0-.812 0l.007.4Zm.801 0c.268 0 .534.005.798.014l.014-.4c-.27-.01-.541-.014-.812-.014v.4Zm.79.013c.055.005.107.011.157.02l.066-.395a2.23 2.23 0 0 0-.193-.024l-.03.399Zm.157.02c.043.007.084.02.124.036l.154-.37a.96.96 0 0 0-.212-.061l-.066.395Zm.138.041c.027.01.052.02.076.036l.212-.34a.753.753 0 0 0-.162-.076l-.126.38Zm.093.045c.009.005.014.01.017.014l.326-.232a.445.445 0 0 0-.164-.14l-.18.358h.001Z"/>
            </g>
            <path fill="#171F34" d="M14.155 22.344c.054.15.09.32.112.512.032.181.048.368.048.56 0 .192-.016.384-.048.576a2.9 2.9 0 0 1-1.12 1.984 5.04 5.04 0 0 1-1.76.864 5.863 5.863 0 0 1-2.032.192 4.538 4.538 0 0 1-1.856-.528 3.37 3.37 0 0 1-.88-.704 4.282 4.282 0 0 1-.624-.928 1.176 1.176 0 0 1-.128-.4c-.01-.16.006-.31.048-.448a.958.958 0 0 1 .208-.384.726.726 0 0 1 .4-.24 1.8 1.8 0 0 1 .352-.032c.139 0 .272.021.4.064.128.032.246.09.352.176.112.082.2.192.256.32.118.224.283.432.496.624.224.181.459.33.704.448.352.117.704.165 1.056.144.363-.021.688-.101.976-.24.299-.139.539-.325.72-.56.181-.245.272-.523.272-.832 0-.256-.037-.464-.112-.624a1.04 1.04 0 0 0-.32-.416 1.513 1.513 0 0 0-.48-.288c-.197-.08-.4-.144-.608-.192a6.316 6.316 0 0 0-.784-.112 21.68 21.68 0 0 1-.784-.08 9.231 9.231 0 0 1-.784-.128 3.845 3.845 0 0 1-.752-.24c-.49-.203-.864-.512-1.12-.928A3.212 3.212 0 0 1 5.9 19.16c-.042-.48.016-.955.176-1.424.16-.48.416-.89.768-1.232.342-.31.747-.528 1.216-.656a6.572 6.572 0 0 1 1.584-.24c.64-.02 1.28.044 1.904.192.31.075.592.17.848.288.267.117.496.256.688.416.139.107.277.25.416.432.139.17.245.357.32.56.075.192.096.379.064.56-.021.181-.133.336-.336.464-.146.1-.32.15-.496.144a1.29 1.29 0 0 1-.432-.144 3.45 3.45 0 0 1-.4-.288 22.072 22.072 0 0 0-.352-.288c-.288-.213-.645-.357-1.072-.432a4.2 4.2 0 0 0-1.2-.048c-.224.03-.444.083-.656.16a1.713 1.713 0 0 0-.528.304c-.138.128-.25.288-.336.48a1.31 1.31 0 0 0-.08.624c.01.17.059.315.144.432.096.117.208.213.336.288.139.075.288.133.448.176.16.043.32.075.48.096.48.064.96.112 1.44.144.48.032.95.139 1.408.32.47.181.87.427 1.2.736.33.31.566.683.704 1.12h-.001Zm11.543-5.904c.053.245.058.496.016.752-.032.245-.08.47-.144.672-.144.466-.293.93-.448 1.392l-.512 1.536c-.171.512-.336.997-.496 1.456l-.4 1.12c-.107.277-.22.592-.336.944a8.14 8.14 0 0 1-.432 1.04c-.156.325-.35.631-.576.912a1.89 1.89 0 0 1-.784.608c-.31.128-.592.16-.848.096a1.76 1.76 0 0 1-.688-.384 3.457 3.457 0 0 1-.56-.704 9.595 9.595 0 0 1-.432-.88 24.88 24.88 0 0 1-.352-.864c-.09-.247-.187-.493-.288-.736a22.27 22.27 0 0 1-.896-2.304 57.854 57.854 0 0 0-.816-2.32c-.089-.255-.174-.51-.256-.768a4.806 4.806 0 0 1-.192-.912 1.89 1.89 0 0 1 .112-.832c.096-.256.298-.432.608-.528.064-.021.128-.037.192-.048.068-.02.138-.036.208-.048.074 0 .144.005.208.016.064.01.133.037.208.08.053.021.106.048.16.08a.425.425 0 0 1 .144.096c.042.053.08.107.112.16l.128.16c.032.075.058.144.08.208.032.053.058.107.08.16.02.072.047.141.08.208.032.053.058.107.08.16l.096.272 2.304 6.576 2.272-6.56.112-.272c.02-.054.042-.107.064-.16.02-.064.042-.133.064-.208.02-.054.042-.107.064-.16.032-.064.069-.128.112-.192l.096-.16c.042-.064.085-.123.128-.176a.555.555 0 0 1 .112-.112c.053-.032.1-.059.144-.08a.817.817 0 0 1 .416-.096c.064.01.128.027.192.048.074.01.144.027.208.048.202.053.352.144.448.272a.96.96 0 0 1 .208.432Zm10.429 6.752c0 .32-.016.645-.048.976-.032.32-.096.635-.192.944-.096.299-.24.587-.432.864a2.66 2.66 0 0 1-.784.704c-.16.107-.352.197-.576.272-.226.067-.456.12-.688.16-.235.053-.47.085-.704.096a4.59 4.59 0 0 1-.656.016c-.96-.032-1.739-.261-2.336-.688a4.508 4.508 0 0 1-1.36-1.616 6.712 6.712 0 0 1-.608-2.08c-.084-.717-.1-1.44-.048-2.16.032-.405.101-.843.208-1.312.117-.47.283-.923.496-1.36.224-.437.496-.832.816-1.184.33-.352.72-.619 1.168-.8.416-.17.87-.277 1.36-.32.49-.054.986-.038 1.472.048.49.085.944.24 1.36.464.426.224.762.523 1.008.896.185.313.32.653.4 1.008.096.395.112.773.048 1.136-.053.32-.166.544-.336.672a.81.81 0 0 1-.56.144 1.373 1.373 0 0 1-.592-.256 1.102 1.102 0 0 1-.368-.56 3.83 3.83 0 0 0-.272-.672 1.306 1.306 0 0 0-.496-.528 1.767 1.767 0 0 0-.816-.272 2.109 2.109 0 0 0-.816.096 2.472 2.472 0 0 0-1.296 1.024 3.18 3.18 0 0 0-.416.88 6.246 6.246 0 0 0-.256 1.984c.021.33.064.65.128.96.117.523.299 1.013.544 1.472.096.17.224.325.384.464.17.128.357.235.56.32.203.075.416.123.64.144.224.021.437.005.64-.048.288-.075.522-.17.704-.288a1.48 1.48 0 0 0 .64-1.008c.044-.21.065-.425.064-.64v-.016h-.368a2.637 2.637 0 0 0-.24-.016c-.235 0-.464-.043-.688-.128a.82.82 0 0 1-.432-.304.618.618 0 0 1-.16-.432v-.176l.032-.192c.052-.117.122-.225.208-.32a.741.741 0 0 1 .304-.128c.064-.021.128-.037.192-.048.064-.021.138-.037.224-.048.064-.01.133-.016.208-.016h1.68c.117-.01.25.005.4.048a.78.78 0 0 1 .368.16l.096.128c.032.043.058.09.08.144.042.117.07.235.08.352.01.064.016.133.016.208.01.064.016.123.016.176v.656Z"/>
            <path fill="#fff" d="m14.155 22.344-.19.06.002.007.188-.067Zm.112.512-.199.022.002.013.197-.035Zm0 1.136-.197-.033-.001.01.198.023Zm-.096.48-.191-.059-.001.004.192.055Zm-1.024 1.504.122.158.002-.001-.124-.157Zm-5.648.528-.098.174.002.001.096-.175Zm-1.504-1.632.18-.09-.004-.006-.176.096Zm-.128-.4-.2.013.001.008.001.007.198-.028Zm.048-.448.191.059.002-.004-.193-.055Zm.208-.384.149.134.006-.007-.155-.127Zm.4-.24-.04-.196-.008.002.048.194Zm.752.032-.063.19.007.002.008.002.048-.194Zm.352.176-.125.157.01.007.115-.164Zm.256.32-.182.084.005.009.177-.093Zm.496.624-.134.149.008.006.126-.155Zm.704.448-.086.18.011.006.012.004.063-.19Zm2.032-.096-.084-.181h-.003l.087.181Zm.72-.56.158.122.003-.003-.16-.119h-.001Zm.16-1.456-.183.08.002.005.181-.085Zm-.32-.416-.135.147.006.006.007.006.122-.159Zm-.48-.288-.076.185.004.001.072-.186Zm-.608-.192.046-.195h-.005l-.04.195h-.001Zm-3.104-.56.08-.183-.003-.002-.077.185ZM5.9 19.16l-.2.018.001.004.199-.022Zm.944-2.656-.134-.148-.005.004.139.144Zm1.216-.656.053.193h.003l-.056-.193Zm3.488-.048-.048.194h.001l.047-.194Zm.848.288-.083.182.003.001.08-.183Zm.688.416-.128.154.006.005.122-.159Zm.416.432-.159.122.004.004.155-.126Zm.32.56-.188.07.002.003.186-.073Zm.064.56-.197-.035-.001.012.198.023Zm-.832.608-.028.198.007.001h.008l.013-.199Zm-.432-.144-.105.17.01.006.095-.176Zm-.752-.576.125-.156-.006-.005-.119.161Zm-2.272-.48-.023-.199h-.004l.027.199Zm-1.184.464-.13-.152-.005.005.135.147Zm-.336.48-.183-.081-.002.005.185.076Zm-.08.624.2-.012v-.006l-.2.018Zm.144.432-.162.118.007.009.155-.127Zm.336.288-.1.173.005.003.095-.176Zm3.776.736-.073.186h.001l.072-.186Zm1.716 1.923c.047.132.081.287.101.467l.398-.044a2.465 2.465 0 0 0-.122-.557l-.377.134Zm.103.48c.03.17.045.344.045.525h.4c0-.2-.017-.399-.05-.595l-.395.07Zm.045.525c0 .182-.015.363-.045.543l.394.066c.034-.201.05-.405.051-.609h-.4Zm-.047.553c-.02.172-.049.32-.088.444l.382.118c.05-.168.085-.341.104-.516l-.398-.046Zm-.09.448a2.7 2.7 0 0 1-.955 1.402l.248.314a3.1 3.1 0 0 0 1.092-1.606l-.385-.11Zm-.953 1.4a4.829 4.829 0 0 1-1.69.83l.105.386a5.226 5.226 0 0 0 1.83-.899l-.245-.316v-.001Zm-1.69.83a5.67 5.67 0 0 1-1.965.186l-.03.398a6.063 6.063 0 0 0 2.1-.198l-.106-.386h.001Zm-1.965.186c-.668-.052-1.258-.22-1.775-.504l-.193.35c.599.32 1.26.51 1.938.552l.03-.398Zm-1.773-.503a3.168 3.168 0 0 1-.828-.662l-.3.265c.261.294.571.543.931.745l.197-.348Zm-.828-.662a4.09 4.09 0 0 1-.595-.886l-.358.18c.179.356.396.68.653.97l.3-.264Zm-.599-.892a.973.973 0 0 1-.105-.332l-.397.056c.024.17.075.327.151.468l.351-.192Zm-.103-.317a1.01 1.01 0 0 1 .04-.376l-.383-.118c-.05.165-.068.338-.056.52l.399-.026Zm.04-.38a.755.755 0 0 1 .164-.305l-.296-.268a1.158 1.158 0 0 0-.252.463l.385.11h-.001Zm.17-.312a.53.53 0 0 1 .295-.173l-.098-.388a.923.923 0 0 0-.506.307l.309.254Zm.285-.17c.092-.02.196-.029.313-.029v-.4c-.131 0-.262.011-.391.036l.078.393Zm.313-.029c.118 0 .229.018.336.054l.127-.38a1.451 1.451 0 0 0-.463-.074v.4Zm.351.058c.099.025.19.07.275.139l.251-.313a1.11 1.11 0 0 0-.428-.214l-.098.388Zm.285.146a.58.58 0 0 1 .191.24l.363-.168a.974.974 0 0 0-.323-.4l-.231.328Zm.194.249c.13.247.311.474.541.68l.267-.298a2.045 2.045 0 0 1-.453-.568l-.355.186Zm.547.686c.236.191.485.349.745.473l.172-.36a3.362 3.362 0 0 1-.664-.423l-.253.31Zm.767.483c.364.124.749.176 1.132.154l-.024-.4a2.586 2.586 0 0 1-.98-.134l-.128.38Zm1.132.154a2.777 2.777 0 0 0 1.051-.26l-.174-.36c-.261.126-.561.2-.901.22l.024.4Zm1.048-.259c.325-.15.591-.356.794-.619l-.316-.244c-.16.206-.373.374-.646.5l.168.363Zm.796-.622c.207-.28.312-.6.312-.951h-.4c0 .267-.077.503-.233.713l.321.238Zm.312-.951c0-.273-.04-.513-.13-.709l-.364.17c.058.124.094.3.094.539h.4Zm-.129-.704a1.24 1.24 0 0 0-.38-.494l-.246.317a.84.84 0 0 1 .259.337l.367-.16Zm-.368-.483a1.71 1.71 0 0 0-.542-.327l-.146.372c.173.068.311.152.418.25l.27-.295Zm-.539-.326a4.294 4.294 0 0 0-.639-.202l-.091.39c.215.05.407.112.577.182l.153-.37Zm-.643-.203a6.488 6.488 0 0 0-.809-.115l-.032.398c.258.02.512.057.76.109l.081-.392Zm-.809-.115c-.26-.022-.518-.049-.776-.08L8.995 22c.27.032.533.059.792.08l.032-.398.001-.001Zm-.776-.08a9.076 9.076 0 0 1-.767-.125l-.082.392c.262.054.53.098.801.13l.048-.397Zm-.767-.125a3.67 3.67 0 0 1-.714-.227l-.159.366c.258.112.522.197.791.253l.082-.392Zm-.717-.229c-.456-.188-.794-.47-1.025-.848l-.341.21c.28.455.688.79 1.214 1.008l.152-.37ZM6.534 20.4a3.011 3.011 0 0 1-.436-1.261l-.398.044c.057.51.222.986.493 1.427l.341-.21Zm-.436-1.257c-.04-.451.015-.898.167-1.341l-.38-.13c-.167.484-.23.997-.185 1.507l.398-.036Zm.168-1.343c.15-.45.389-.833.716-1.151l-.278-.288a3.217 3.217 0 0 0-.819 1.313l.381.126Zm.712-1.147c.324-.291.713-.5 1.134-.611l-.105-.386a3.125 3.125 0 0 0-1.297.7l.268.297Zm1.137-.612a6.33 6.33 0 0 1 1.536-.232l-.014-.4c-.552.016-1.1.1-1.633.248l.111.384Zm1.536-.232c.31-.01.621 0 .932.031l.04-.398a7.395 7.395 0 0 0-.986-.033l.014.4Zm.932.031c.322.031.627.083.916.155l.097-.388a6.636 6.636 0 0 0-.973-.165l-.04.398Zm.917.154c.299.072.569.166.812.277l.167-.364a4.848 4.848 0 0 0-.885-.3l-.094.387Zm.815.278c.252.111.465.24.64.387l.256-.308a3.076 3.076 0 0 0-.735-.445l-.161.366Zm.646.392c.122.093.248.222.38.394l.317-.243a2.513 2.513 0 0 0-.453-.468l-.244.317Zm.383.4c.125.153.22.32.288.502l.375-.138c-.083-.224-.2-.43-.353-.617l-.31.253Zm.289.506c.06.143.078.3.053.452l.394.07a1.23 1.23 0 0 0-.074-.668l-.373.146Zm.052.464c-.013.103-.076.211-.245.318l.213.339c.237-.15.398-.352.429-.61l-.397-.047Zm-.245.318a.628.628 0 0 1-.375.113l-.027.4c.211.014.418-.051.615-.174l-.213-.339Zm-.36.115a1.095 1.095 0 0 1-.366-.122l-.19.352c.159.085.325.141.499.166l.057-.396Zm-.356-.116c-.13-.08-.256-.17-.377-.272l-.256.308c.135.112.276.214.423.305l.21-.341Zm-.377-.272a22.421 22.421 0 0 0-.355-.29l-.25.312c.106.084.222.18.35.286l.255-.308Zm-.36-.296c-.318-.235-.706-.389-1.157-.467l-.07.394c.403.07.73.204.988.396l.238-.322.001-.001Zm-1.157-.467a4.386 4.386 0 0 0-1.258-.05l.046.398c.352-.04.731-.026 1.142.046l.07-.394Zm-1.262-.05a3.308 3.308 0 0 0-.698.171l.138.376c.188-.07.393-.12.614-.15l-.054-.397Zm-.698.171c-.223.082-.42.195-.589.34l.26.304a1.51 1.51 0 0 1 .467-.268l-.138-.376Zm-.594.345a1.66 1.66 0 0 0-.384.546l.366.162c.075-.17.172-.306.289-.414l-.271-.294Zm-.385.55a1.5 1.5 0 0 0-.095.72l.398-.037a1.11 1.11 0 0 1 .066-.53l-.37-.152.001-.001Zm-.095.713c.012.202.07.385.181.538l.324-.236a.605.605 0 0 1-.106-.326l-.399.024Zm.188.547c.111.135.241.247.39.334l.202-.346a1.035 1.035 0 0 1-.282-.242l-.31.254Zm.396.337c.153.082.317.147.492.193l.103-.386a1.873 1.873 0 0 1-.405-.16l-.19.353Zm.492.193c.168.045.336.079.505.101l.053-.396a3.631 3.631 0 0 1-.455-.091l-.103.386Zm.505.101c.484.065.968.113 1.453.146l.027-.4a21.8 21.8 0 0 1-1.427-.142l-.053.396Zm1.453.146c.459.03.908.132 1.348.306l.147-.372a4.854 4.854 0 0 0-1.468-.334l-.027.4Zm1.35.307c.447.173.825.405 1.135.695l.273-.292a3.872 3.872 0 0 0-1.265-.777l-.144.374h.001Zm1.135.695c.305.286.521.63.65 1.034l.38-.12a2.772 2.772 0 0 0-.757-1.206l-.273.292Zm12.383-4.93-.197.04.001.003.196-.043Zm.016.752-.198-.033v.007l.198.026Zm-2 6.176.186.072.002-.005-.188-.067Zm-.768 1.984-.18-.09v.003l.18.087Zm-.576.912-.156-.126-.003.004.159.122Zm-1.632.704-.056.192.007.002.049-.194Zm-.688-.384-.138.145.004.004.134-.149Zm-.56-.704-.175.097.004.008.171-.105Zm-.784-1.744-.188.07v.002l.188-.072Zm-.288-.736.184-.078-.003-.005-.181.083Zm-1.712-4.624-.19.066.002.005.188-.071Zm-.256-.768-.191.06.19-.06h.001Zm-.192-.912-.2.014v.007l.2-.021Zm.112-.832.186.073v-.003l-.186-.07Zm.608-.528.059.191.004-.001-.063-.19Zm.192-.048.032.197.012-.002.01-.003-.054-.192Zm.208-.048v-.2h-.017l-.016.003.033.197Zm.416.096-.1.174.012.006.013.006.075-.186Zm.16.08-.103.171.013.009.015.006.075-.186Zm.144.096.156-.125-.007-.009-.008-.007-.141.141Zm.112.16-.172.103.007.011.008.01.157-.124Zm.128.16.183-.079-.01-.025-.017-.02-.156.124Zm.08.208-.19.063.007.021.011.019.172-.103Zm.08.16.192-.055-.003-.01-.004-.01-.185.075Zm.08.208-.18.09.004.006.004.007.172-.103Zm.08.16.188-.067-.003-.007-.185.074Zm2.4 6.848-.19.066.19.542.189-.543-.19-.065h.001Zm2.272-6.56-.186-.076-.003.01.189.066Zm.112-.272.184.076.001-.002-.185-.074Zm.064-.16.186.074.003-.01-.19-.064h.001Zm.064-.208-.186-.074-.004.01-.003.01.193.054Zm.064-.16-.18-.09-.003.008-.003.008.186.074Zm.112-.192.166.111.005-.008-.171-.103Zm.096-.16-.167-.111-.005.008.172.103Zm.128-.176.156.125.004-.005-.16-.12Zm.112-.112-.103-.171-.01.005-.007.006.12.16Zm.368-.16-.029-.198h-.004l.033.198Zm.192-.016.032-.197-.016-.003h-.016v.2Zm.192.048-.064.19.017.005.018.003.029-.198Zm.208.048-.064.19.013.003.051-.193Zm.448.272-.16.12.006.008.154-.128Zm.012.475c.048.22.053.444.014.676l.395.066c.046-.28.04-.556-.018-.828l-.391.086Zm.013.683c-.03.236-.076.448-.136.638l.381.12c.068-.215.119-.451.152-.706l-.397-.052Zm-.137.64c-.127.413-.276.876-.446 1.387l.38.126c.17-.513.32-.978.449-1.396l-.383-.117Zm-.446 1.387-.512 1.536.38.126.512-1.536-.38-.126Zm-.512 1.536c-.17.511-.336.995-.495 1.453l.377.133c.16-.46.327-.947.498-1.46l-.38-.126Zm-.495 1.452-.4 1.12.377.134.4-1.12-.377-.134Zm-.398 1.115c-.108.281-.221.599-.34.953l.38.126c.117-.35.228-.661.333-.935l-.373-.144Zm-.34.953a7.672 7.672 0 0 1-.42 1.014l.357.178c.175-.35.323-.704.443-1.066l-.38-.126Zm-.422 1.016c-.15.311-.335.604-.551.873l.311.252c.234-.29.434-.607.6-.95l-.36-.175Zm-.554.877c-.193.25-.426.431-.702.545l.153.37a2.09 2.09 0 0 0 .866-.671l-.317-.244Zm-.702.545c-.28.116-.518.138-.723.087l-.097.388c.308.077.635.035.973-.105l-.153-.37Zm-.715.089a1.56 1.56 0 0 1-.611-.341l-.267.298c.225.2.481.344.766.427l.112-.384Zm-.607-.337a3.262 3.262 0 0 1-.527-.664l-.341.21c.177.29.376.538.593.744l.275-.29Zm-.523-.656a9.381 9.381 0 0 1-.423-.862l-.367.158c.13.305.277.604.44.898l.35-.194Zm-.423-.862c-.122-.284-.238-.57-.349-.857l-.374.144c.108.28.227.571.356.871l.367-.158Zm-.348-.854c-.107-.29-.204-.538-.291-.745l-.369.156c.084.199.179.441.285.727l.375-.138Zm-.294-.75a22.304 22.304 0 0 1-.887-2.284l-.38.125c.268.818.57 1.592.904 2.325l.363-.166Zm-.887-2.284a56.676 56.676 0 0 0-.82-2.328l-.374.142c.277.733.548 1.503.814 2.311l.38-.125Zm-.818-2.323a31.415 31.415 0 0 1-.254-.763l-.38.122c.095.3.18.558.256.773l.378-.132Zm-.253-.761a4.592 4.592 0 0 1-.185-.874l-.398.042c.033.313.101.631.201.951l.382-.119Zm-.184-.867c-.02-.285.015-.532.099-.745l-.373-.146c-.11.293-.152.607-.125.919l.399-.028Zm.099-.748c.07-.187.218-.325.481-.407l-.119-.382c-.356.11-.614.324-.736.649l.374.14Zm.485-.408a.97.97 0 0 1 .161-.04l-.065-.395a1.32 1.32 0 0 0-.223.055l.127.38Zm.183-.046c.07-.02.131-.034.186-.043l-.065-.394a2.082 2.082 0 0 0-.23.053l.109.384Zm.154-.04c.065 0 .123.005.175.013l.065-.394c-.08-.013-.16-.02-.24-.019v.4Zm.175.013c.05.01.098.03.141.057l.199-.348a.835.835 0 0 0-.275-.103l-.065.394Zm.166.069c.046.018.09.04.132.066l.206-.343a1.321 1.321 0 0 0-.19-.095l-.148.372Zm.16.08c.027.01.053.027.077.051l.283-.282a.627.627 0 0 0-.211-.14l-.149.371Zm.062.035c.038.047.07.093.097.138l.343-.206a1.637 1.637 0 0 0-.127-.182l-.313.25Zm.112.159.128.161.313-.249-.128-.161-.313.249Zm.1.115c.031.07.056.134.075.192l.38-.126a2.896 2.896 0 0 0-.087-.224l-.368.158Zm.093.232a.934.934 0 0 1 .066.131l.371-.148a1.33 1.33 0 0 0-.094-.189l-.343.206Zm.06.112c.024.085.055.166.093.242l.357-.178a1.01 1.01 0 0 1-.066-.174l-.384.11Zm.1.256a.934.934 0 0 1 .066.131l.371-.148a1.33 1.33 0 0 0-.094-.189l-.343.206Zm.063.124.096.272.377-.133-.096-.273-.377.134Zm.096.272 2.303 6.575.378-.132-2.304-6.576-.377.133Zm2.681 6.575 2.273-6.56-.378-.132-2.272 6.561.378.13-.001.001Zm2.269-6.55.111-.272-.37-.152-.112.272.371.152Zm.112-.274.016-.04.016-.04.033-.08-.372-.148-.016.04-.016.04a1.568 1.568 0 0 0-.032.08l.371.148Zm.068-.17c.024-.072.046-.144.067-.217l-.385-.109a3.459 3.459 0 0 1-.061.199l.38.126-.001.001Zm.06-.198.064-.16-.371-.148-.064.16.371.148Zm.057-.145c.028-.056.062-.112.1-.17l-.333-.222c-.046.069-.087.14-.124.214l.357.178Zm.105-.178.096-.16L23.67 16l-.096.16.343.206v.002Zm.091-.152c.04-.06.08-.114.118-.162l-.313-.25a2.641 2.641 0 0 0-.138.19l.333.222Zm.122-.167a.353.353 0 0 1 .072-.072l-.24-.32a.75.75 0 0 0-.152.152l.32.24Zm.055-.06c.05-.03.093-.055.13-.073l-.179-.358a2.366 2.366 0 0 0-.157.088l.206.343Zm.13-.073a.627.627 0 0 1 .167-.062l-.065-.394a1.005 1.005 0 0 0-.281.098l.179.358Zm.163-.061c.054-.008.11-.013.164-.014v-.4c-.066 0-.14.007-.22.018l.056.396Zm.13-.017c.054.01.108.024.162.041l.127-.38a1.476 1.476 0 0 0-.223-.055l-.066.394Zm.197.049c.064.01.122.023.173.04l.127-.38a1.379 1.379 0 0 0-.243-.056l-.057.396Zm.186.043c.172.046.277.117.338.2l.32-.241c-.13-.174-.324-.284-.556-.345l-.102.386Zm.345.207a.76.76 0 0 1 .165.343l.393-.078a1.16 1.16 0 0 0-.25-.521l-.308.256Zm10.55 8.976.191.061v-.002l-.191-.059Zm-.431.864.162.117.002-.003-.164-.114Zm-.784.704-.105-.17-.006.004.11.166h.001Zm-.576.272.057.192.006-.002-.063-.19Zm-.688.16-.034-.197-.01.002.044.195Zm-.704.096-.01-.2h-.008l.018.2Zm-.656.016.01-.2h-.004l-.006.2Zm-2.336-.688-.12.16.004.003.116-.163Zm-1.36-1.616-.18.087v.002l.18-.089Zm-.608-2.08-.199.022v.004l.199-.026Zm.16-3.472-.194-.048-.001.004.195.044Zm.496-1.36-.178-.091-.002.003.18.088Zm.816-1.184-.146-.137-.002.002.148.135Zm2.528-1.12.017.2.004-.001-.021-.199Zm2.832.512-.095.176.002.001.093-.177Zm1.008.896.17-.105-.003-.005-.167.11Zm.448 2.144-.197-.035v.002l.197.033Zm-.336.672.113.165.007-.005-.12-.16Zm-.56.144-.031.198h.01l.021-.198Zm-.592-.256-.128.155.01.007.118-.162Zm-.368-.56.192-.055v-.003l-.192.058Zm-.272-.672-.18.09.003.003.177-.093Zm-2.128-.704-.061-.19h-.002l.063.19Zm-.736.4-.123-.158-.003.003.126.155Zm-.56.624.165.113.004-.006-.169-.107Zm-.416.88.19.06.001-.003-.191-.057Zm-.256 1.984-.2.006v.007l.2-.013Zm.128.96-.196.04v.004l.196-.044Zm.544 1.472-.177.094.003.004.174-.098Zm.384.464-.131.151.01.009.12-.16h.001Zm.56.32-.078.184.009.004.069-.188Zm1.984-.192.109.168.006-.005-.115-.163Zm.64-1.008-.196-.041-.002.01.198.031Zm.064-.656h.2v-.2h-.2v.2Zm-.368 0-.02.199.01.001h.01v-.2Zm-.928-.144.071-.187-.008-.003-.063.19Zm-.432-.304.164-.114-.007-.01-.01-.01-.147.134Zm-.16-.608-.197-.033-.003.016v.017h.2Zm.032-.192-.188-.07-.006.018-.004.02.198.032Zm.208-.32-.128-.154-.014.012-.012.014.154.128Zm.304-.128.045.195.009-.002.01-.003-.064-.19Zm.192-.048.033.197.015-.002.015-.005-.063-.19Zm.224-.048.025.199.008-.002-.033-.197Zm1.888-.016v.2h.018l-.018-.2Zm.4.048-.055.192.008.003.008.001.039-.196Zm.368.16.16-.12-.013-.017-.015-.013-.132.15Zm.176.272.188-.068-.003-.006-.185.074Zm.08.352-.2.018.001.007.002.008.197-.033Zm.016.208h-.2v.017l.002.016.198-.033Zm-.184.832c0 .313-.016.632-.047.957l.398.039c.032-.337.049-.67.049-.996h-.4Zm-.047.957c-.03.306-.092.607-.184.904l.381.118c.1-.322.167-.65.201-.983l-.398-.039Zm-.184.902c-.09.278-.224.549-.406.811l.329.228c.197-.282.352-.59.458-.917l-.381-.122Zm-.404.808a2.466 2.466 0 0 1-.726.651l.21.34c.349-.214.631-.465.841-.757l-.325-.234Zm-.732.655a2.213 2.213 0 0 1-.528.248l.126.38c.237-.08.446-.177.624-.296l-.222-.332Zm-.523.246c-.218.065-.44.117-.664.155l.068.394c.252-.044.49-.099.711-.165l-.115-.384Zm-.674.157c-.223.05-.448.08-.67.091l.019.4c.247-.011.493-.045.74-.101l-.089-.39Zm-.678.091c-.227.02-.436.026-.628.016l-.02.4c.213.011.441.005.684-.017l-.036-.399Zm-.632.016c-.932-.031-1.67-.253-2.226-.65l-.232.325c.638.455 1.458.692 2.445.725l.013-.4Zm-2.223-.648a4.308 4.308 0 0 1-1.3-1.545l-.358.178c.333.667.82 1.245 1.419 1.687l.239-.32Zm-1.3-1.543a6.514 6.514 0 0 1-.589-2.018l-.397.05c.099.767.308 1.482.627 2.142l.359-.174Zm-.588-2.015c-.084-.747-.1-1.454-.048-2.122l-.399-.032c-.053.733-.037 1.469.049 2.198l.398-.044Zm-.048-2.122c.031-.395.099-.822.204-1.284l-.39-.088c-.103.44-.174.889-.213 1.34l.4.032h-.001Zm.203-1.28c.114-.455.274-.895.482-1.32l-.36-.176c-.22.45-.39.917-.51 1.4l.388.096Zm.48-1.317c.21-.413.475-.797.786-1.14l-.296-.27a5.63 5.63 0 0 0-.846 1.228l.356.182Zm.784-1.138c.31-.331.676-.581 1.097-.752l-.15-.37c-.47.189-.893.478-1.239.848l.292.274Zm1.097-.752c.396-.162.83-.264 1.302-.305l-.035-.399a4.803 4.803 0 0 0-1.417.334l.15.37Zm1.306-.306a5.02 5.02 0 0 1 1.416.046l.07-.394a5.412 5.412 0 0 0-1.528-.05l.042.398Zm1.416.046c.47.082.904.23 1.3.443l.19-.352a4.655 4.655 0 0 0-1.42-.485l-.07.394Zm1.302.444c.399.21.708.486.934.829l.334-.22a2.857 2.857 0 0 0-1.082-.963l-.186.354Zm.93.824c.158.256.284.571.377.95l.388-.094c-.1-.41-.24-.767-.424-1.066l-.341.21Zm.377.95c.09.37.103.721.045 1.054l.394.07c.069-.393.051-.8-.05-1.218l-.39.094h.001Zm.045 1.056c-.049.295-.147.46-.259.545l.24.32c.229-.172.356-.454.413-.8l-.394-.065Zm-.253.54a.61.61 0 0 1-.425.11l-.042.397c.25.026.485-.033.694-.177l-.227-.33Zm-.415.111a1.177 1.177 0 0 1-.506-.22l-.235.324c.213.154.441.254.679.292l.062-.396Zm-.496-.212a.903.903 0 0 1-.303-.461l-.384.11c.075.263.22.485.432.66l.255-.309Zm-.303-.464a4.049 4.049 0 0 0-.287-.707l-.354.186c.1.19.186.403.258.637l.383-.116Zm-.285-.703a1.505 1.505 0 0 0-.57-.61l-.211.34c.196.122.335.272.423.448l.358-.178Zm-.57-.61a1.964 1.964 0 0 0-.906-.3l-.03.398c.254.02.495.098.725.242l.211-.34Zm-.906-.3a2.306 2.306 0 0 0-.892.105l.122.38c.239-.077.49-.107.74-.087l.03-.399v.001Zm-.894.105a2.686 2.686 0 0 0-.796.432l.245.316c.203-.16.432-.285.677-.368l-.126-.38Zm-.799.435c-.24.194-.442.418-.603.672l.338.214c.137-.215.309-.407.517-.576l-.252-.31Zm-.6.666a3.409 3.409 0 0 0-.442.936l.383.114c.09-.3.22-.574.39-.824l-.33-.225-.001-.001Zm-.441.934c-.102.33-.174.668-.216 1.01l.397.05a5.49 5.49 0 0 1 .2-.941l-.381-.119Zm-.216 1.01c-.044.345-.06.692-.05 1.04l.4-.013c-.01-.331.006-.657.047-.976l-.397-.051Zm-.049 1.046c.022.34.066.669.132.988l.392-.081a6.785 6.785 0 0 1-.125-.933l-.399.026Zm.133.99c.12.54.308 1.048.562 1.523l.353-.188a5.596 5.596 0 0 1-.525-1.422l-.391.088.001-.001Zm.565 1.527c.108.192.25.364.427.517l.262-.302a1.552 1.552 0 0 1-.34-.411l-.349.196Zm.437.526c.184.138.386.252.603.344l.155-.369a2.433 2.433 0 0 1-.517-.295l-.241.32Zm.612.348c.22.08.449.132.689.155l.039-.398a2.338 2.338 0 0 1-.59-.133l-.138.376Zm.689.155c.247.023.484.006.71-.054l-.1-.387c-.186.048-.38.063-.571.043l-.039.398Zm.71-.054c.302-.078.558-.18.763-.313l-.218-.336c-.2.12-.418.21-.645.262l.1.387Zm.769-.318c.2-.141.364-.31.486-.505l-.339-.212a1.365 1.365 0 0 1-.377.39l.23.327Zm.486-.505c.122-.194.2-.406.236-.635l-.395-.062a1.284 1.284 0 0 1-.18.485l.339.212Zm.234-.625c.046-.217.069-.444.069-.681h-.4c0 .211-.02.41-.06.599l.391.082Zm.069-.681v-.016h-.4v.016h.4Zm-.2-.216h-.368v.4h.369l-.001-.4Zm-.348.001a2.79 2.79 0 0 0-.26-.017v.4c.043 0 .115.005.22.015l.04-.398Zm-.26-.017c-.21 0-.415-.038-.617-.115l-.142.374c.246.094.5.141.759.141v-.4Zm-.625-.118a.623.623 0 0 1-.331-.228l-.329.228c.126.18.309.305.534.38l.126-.38Zm-.348-.248a.419.419 0 0 1-.107-.298h-.4c0 .216.069.41.212.566l.295-.268Zm-.107-.298v-.177l-.4-.001v.178h.4Zm-.003-.143.032-.192-.395-.066c-.01.064-.019.128-.031.192l.394.066Zm.022-.155c.02-.053.072-.14.175-.262l-.308-.256c-.1.112-.182.24-.242.378l.375.14Zm.149-.236a.57.57 0 0 1 .221-.087l-.091-.39a.929.929 0 0 0-.386.17l.256.307Zm.24-.092a1.06 1.06 0 0 1 .16-.04l-.065-.395a1.46 1.46 0 0 0-.222.055l.127.38Zm.191-.048a.97.97 0 0 1 .186-.039l-.05-.397c-.089.01-.177.029-.262.056l.126.38Zm.194-.041a.924.924 0 0 1 .175-.013v-.4c-.08 0-.161.006-.241.019l.066.394Zm.175-.013h.222l.002-.4h-.224v.4Zm.222 0h1.458v-.4h-1.456l-.002.4Zm1.476 0a.91.91 0 0 1 .327.04l.11-.384a1.301 1.301 0 0 0-.473-.055l.036.399Zm.343.044c.14.028.225.07.275.114l.264-.3a.98.98 0 0 0-.461-.206l-.078.392Zm.247.084.096.128.32-.24-.096-.128-.32.24Zm.096.128c.02.028.039.06.054.098l.371-.148a.825.825 0 0 0-.105-.19l-.32.24Zm.052.092c.037.103.059.203.068.302l.399-.036a1.594 1.594 0 0 0-.091-.402l-.376.136Zm.071.317c.01.052.013.11.013.175h.4c0-.08-.006-.16-.019-.24l-.394.065Zm.016.208a.903.903 0 0 1 .013.143h.4c0-.066-.007-.136-.019-.209l-.395.066h.001Zm.013.143v.656h.4v-.656h-.4Z"/>
            <path fill="url(#paint1_linear_3_57)" d="M14.155 22.344c.054.15.09.32.112.512.032.181.048.368.048.56 0 .192-.016.384-.048.576a2.9 2.9 0 0 1-1.12 1.984 5.04 5.04 0 0 1-1.76.864 5.863 5.863 0 0 1-2.032.192 4.538 4.538 0 0 1-1.856-.528 3.37 3.37 0 0 1-.88-.704 4.282 4.282 0 0 1-.624-.928 1.176 1.176 0 0 1-.128-.4c-.01-.16.006-.31.048-.448a.958.958 0 0 1 .208-.384.726.726 0 0 1 .4-.24 1.8 1.8 0 0 1 .352-.032c.139 0 .272.021.4.064.128.032.246.09.352.176.112.082.2.192.256.32.118.224.283.432.496.624.224.181.459.33.704.448.352.117.704.165 1.056.144.363-.021.688-.101.976-.24.299-.139.539-.325.72-.56.181-.245.272-.523.272-.832 0-.256-.037-.464-.112-.624a1.04 1.04 0 0 0-.32-.416 1.513 1.513 0 0 0-.48-.288c-.197-.08-.4-.144-.608-.192a6.316 6.316 0 0 0-.784-.112 21.68 21.68 0 0 1-.784-.08 9.231 9.231 0 0 1-.784-.128 3.845 3.845 0 0 1-.752-.24c-.49-.203-.864-.512-1.12-.928A3.212 3.212 0 0 1 5.9 19.16c-.042-.48.016-.955.176-1.424.16-.48.416-.89.768-1.232.342-.31.747-.528 1.216-.656a6.572 6.572 0 0 1 1.584-.24c.64-.02 1.28.044 1.904.192.31.075.592.17.848.288.267.117.496.256.688.416.139.107.277.25.416.432.139.17.245.357.32.56.075.192.096.379.064.56-.021.181-.133.336-.336.464-.146.1-.32.15-.496.144a1.29 1.29 0 0 1-.432-.144 3.45 3.45 0 0 1-.4-.288 22.072 22.072 0 0 0-.352-.288c-.288-.213-.645-.357-1.072-.432a4.2 4.2 0 0 0-1.2-.048c-.224.03-.444.083-.656.16a1.713 1.713 0 0 0-.528.304c-.138.128-.25.288-.336.48a1.31 1.31 0 0 0-.08.624c.01.17.059.315.144.432.096.117.208.213.336.288.139.075.288.133.448.176.16.043.32.075.48.096.48.064.96.112 1.44.144.48.032.95.139 1.408.32.47.181.87.427 1.2.736.33.31.566.683.704 1.12h-.001Zm11.543-5.904c.053.245.058.496.016.752-.032.245-.08.47-.144.672-.144.466-.293.93-.448 1.392l-.512 1.536c-.171.512-.336.997-.496 1.456l-.4 1.12c-.107.277-.22.592-.336.944a8.14 8.14 0 0 1-.432 1.04c-.156.325-.35.631-.576.912a1.89 1.89 0 0 1-.784.608c-.31.128-.592.16-.848.096a1.76 1.76 0 0 1-.688-.384 3.457 3.457 0 0 1-.56-.704 9.595 9.595 0 0 1-.432-.88 24.88 24.88 0 0 1-.352-.864c-.09-.247-.187-.493-.288-.736a22.27 22.27 0 0 1-.896-2.304 57.854 57.854 0 0 0-.816-2.32c-.089-.255-.174-.51-.256-.768a4.806 4.806 0 0 1-.192-.912 1.89 1.89 0 0 1 .112-.832c.096-.256.298-.432.608-.528.064-.021.128-.037.192-.048.068-.02.138-.036.208-.048.074 0 .144.005.208.016.064.01.133.037.208.08.053.021.106.048.16.08a.425.425 0 0 1 .144.096c.042.053.08.107.112.16l.128.16c.032.075.058.144.08.208.032.053.058.107.08.16.02.072.047.141.08.208.032.053.058.107.08.16l.096.272 2.304 6.576 2.272-6.56.112-.272c.02-.054.042-.107.064-.16.02-.064.042-.133.064-.208.02-.054.042-.107.064-.16.032-.064.069-.128.112-.192l.096-.16c.042-.064.085-.123.128-.176a.555.555 0 0 1 .112-.112c.053-.032.1-.059.144-.08a.817.817 0 0 1 .416-.096c.064.01.128.027.192.048.074.01.144.027.208.048.202.053.352.144.448.272a.96.96 0 0 1 .208.432Zm10.429 6.752c0 .32-.016.645-.048.976-.032.32-.096.635-.192.944-.096.299-.24.587-.432.864a2.66 2.66 0 0 1-.784.704c-.16.107-.352.197-.576.272-.226.067-.456.12-.688.16-.235.053-.47.085-.704.096a4.59 4.59 0 0 1-.656.016c-.96-.032-1.739-.261-2.336-.688a4.508 4.508 0 0 1-1.36-1.616 6.712 6.712 0 0 1-.608-2.08c-.084-.717-.1-1.44-.048-2.16.032-.405.101-.843.208-1.312.117-.47.283-.923.496-1.36.224-.437.496-.832.816-1.184.33-.352.72-.619 1.168-.8.416-.17.87-.277 1.36-.32.49-.054.986-.038 1.472.048.49.085.944.24 1.36.464.426.224.762.523 1.008.896.185.313.32.653.4 1.008.096.395.112.773.048 1.136-.053.32-.166.544-.336.672a.81.81 0 0 1-.56.144 1.373 1.373 0 0 1-.592-.256 1.102 1.102 0 0 1-.368-.56 3.83 3.83 0 0 0-.272-.672 1.306 1.306 0 0 0-.496-.528 1.767 1.767 0 0 0-.816-.272 2.109 2.109 0 0 0-.816.096 2.472 2.472 0 0 0-1.296 1.024 3.18 3.18 0 0 0-.416.88 6.246 6.246 0 0 0-.256 1.984c.021.33.064.65.128.96.117.523.299 1.013.544 1.472.096.17.224.325.384.464.17.128.357.235.56.32.203.075.416.123.64.144.224.021.437.005.64-.048.288-.075.522-.17.704-.288a1.48 1.48 0 0 0 .64-1.008c.044-.21.065-.425.064-.64v-.016h-.368a2.637 2.637 0 0 0-.24-.016c-.235 0-.464-.043-.688-.128a.82.82 0 0 1-.432-.304.618.618 0 0 1-.16-.432v-.176l.032-.192c.052-.117.122-.225.208-.32a.741.741 0 0 1 .304-.128c.064-.021.128-.037.192-.048.064-.021.138-.037.224-.048.064-.01.133-.016.208-.016h1.68c.117-.01.25.005.4.048a.78.78 0 0 1 .368.16l.096.128c.032.043.058.09.08.144.042.117.07.235.08.352.01.064.016.133.016.208.01.064.016.123.016.176v.656Z"/>
            <path fill="#fff" d="m14.155 22.344-.19.06.002.007.188-.067Zm.112.512-.199.022.002.013.197-.035Zm0 1.136-.197-.033-.001.01.198.023Zm-.096.48-.191-.059-.001.004.192.055Zm-1.024 1.504.122.158.002-.001-.124-.157Zm-5.648.528-.098.174.002.001.096-.175Zm-1.504-1.632.18-.09-.004-.006-.176.096Zm-.128-.4-.2.013.001.008.001.007.198-.028Zm.048-.448.191.059.002-.004-.193-.055Zm.208-.384.149.134.006-.007-.155-.127Zm.4-.24-.04-.196-.008.002.048.194Zm.752.032-.063.19.007.002.008.002.048-.194Zm.352.176-.125.157.01.007.115-.164Zm.256.32-.182.084.005.009.177-.093Zm.496.624-.134.149.008.006.126-.155Zm.704.448-.086.18.011.006.012.004.063-.19Zm2.032-.096-.084-.181h-.003l.087.181Zm.72-.56.158.122.003-.003-.16-.119h-.001Zm.16-1.456-.183.08.002.005.181-.085Zm-.32-.416-.135.147.006.006.007.006.122-.159Zm-.48-.288-.076.185.004.001.072-.186Zm-.608-.192.046-.195h-.005l-.04.195h-.001Zm-3.104-.56.08-.183-.003-.002-.077.185ZM5.9 19.16l-.2.018.001.004.199-.022Zm.944-2.656-.134-.148-.005.004.139.144Zm1.216-.656.053.193h.003l-.056-.193Zm3.488-.048-.048.194h.001l.047-.194Zm.848.288-.083.182.003.001.08-.183Zm.688.416-.128.154.006.005.122-.159Zm.416.432-.159.122.004.004.155-.126Zm.32.56-.188.07.002.003.186-.073Zm.064.56-.197-.035-.001.012.198.023Zm-.832.608-.028.198.007.001h.008l.013-.199Zm-.432-.144-.105.17.01.006.095-.176Zm-.752-.576.125-.156-.006-.005-.119.161Zm-2.272-.48-.023-.199h-.004l.027.199Zm-1.184.464-.13-.152-.005.005.135.147Zm-.336.48-.183-.081-.002.005.185.076Zm-.08.624.2-.012v-.006l-.2.018Zm.144.432-.162.118.007.009.155-.127Zm.336.288-.1.173.005.003.095-.176Zm3.776.736-.073.186h.001l.072-.186Zm1.716 1.923c.047.132.081.287.101.467l.398-.044a2.465 2.465 0 0 0-.122-.557l-.377.134Zm.103.48c.03.17.045.344.045.525h.4c0-.2-.017-.399-.05-.595l-.395.07Zm.045.525c0 .182-.015.363-.045.543l.394.066c.034-.201.05-.405.051-.609h-.4Zm-.047.553c-.02.172-.049.32-.088.444l.382.118c.05-.168.085-.341.104-.516l-.398-.046Zm-.09.448a2.7 2.7 0 0 1-.955 1.402l.248.314a3.1 3.1 0 0 0 1.092-1.606l-.385-.11Zm-.953 1.4a4.829 4.829 0 0 1-1.69.83l.105.386a5.226 5.226 0 0 0 1.83-.899l-.245-.316v-.001Zm-1.69.83a5.67 5.67 0 0 1-1.965.186l-.03.398a6.063 6.063 0 0 0 2.1-.198l-.106-.386h.001Zm-1.965.186c-.668-.052-1.258-.22-1.775-.504l-.193.35c.599.32 1.26.51 1.938.552l.03-.398Zm-1.773-.503a3.168 3.168 0 0 1-.828-.662l-.3.265c.261.294.571.543.931.745l.197-.348Zm-.828-.662a4.09 4.09 0 0 1-.595-.886l-.358.18c.179.356.396.68.653.97l.3-.264Zm-.599-.892a.973.973 0 0 1-.105-.332l-.397.056c.024.17.075.327.151.468l.351-.192Zm-.103-.317a1.01 1.01 0 0 1 .04-.376l-.383-.118c-.05.165-.068.338-.056.52l.399-.026Zm.04-.38a.755.755 0 0 1 .164-.305l-.296-.268a1.158 1.158 0 0 0-.252.463l.385.11h-.001Zm.17-.312a.53.53 0 0 1 .295-.173l-.098-.388a.923.923 0 0 0-.506.307l.309.254Zm.285-.17c.092-.02.196-.029.313-.029v-.4c-.131 0-.262.011-.391.036l.078.393Zm.313-.029c.118 0 .229.018.336.054l.127-.38a1.451 1.451 0 0 0-.463-.074v.4Zm.351.058c.099.025.19.07.275.139l.251-.313a1.11 1.11 0 0 0-.428-.214l-.098.388Zm.285.146a.58.58 0 0 1 .191.24l.363-.168a.974.974 0 0 0-.323-.4l-.231.328Zm.194.249c.13.247.311.474.541.68l.267-.298a2.045 2.045 0 0 1-.453-.568l-.355.186Zm.547.686c.236.191.485.349.745.473l.172-.36a3.362 3.362 0 0 1-.664-.423l-.253.31Zm.767.483c.364.124.749.176 1.132.154l-.024-.4a2.586 2.586 0 0 1-.98-.134l-.128.38Zm1.132.154a2.777 2.777 0 0 0 1.051-.26l-.174-.36c-.261.126-.561.2-.901.22l.024.4Zm1.048-.259c.325-.15.591-.356.794-.619l-.316-.244c-.16.206-.373.374-.646.5l.168.363Zm.796-.622c.207-.28.312-.6.312-.951h-.4c0 .267-.077.503-.233.713l.321.238Zm.312-.951c0-.273-.04-.513-.13-.709l-.364.17c.058.124.094.3.094.539h.4Zm-.129-.704a1.24 1.24 0 0 0-.38-.494l-.246.317a.84.84 0 0 1 .259.337l.367-.16Zm-.368-.483a1.71 1.71 0 0 0-.542-.327l-.146.372c.173.068.311.152.418.25l.27-.295Zm-.539-.326a4.294 4.294 0 0 0-.639-.202l-.091.39c.215.05.407.112.577.182l.153-.37Zm-.643-.203a6.488 6.488 0 0 0-.809-.115l-.032.398c.258.02.512.057.76.109l.081-.392Zm-.809-.115c-.26-.022-.518-.049-.776-.08L8.995 22c.27.032.533.059.792.08l.032-.398.001-.001Zm-.776-.08a9.076 9.076 0 0 1-.767-.125l-.082.392c.262.054.53.098.801.13l.048-.397Zm-.767-.125a3.67 3.67 0 0 1-.714-.227l-.159.366c.258.112.522.197.791.253l.082-.392Zm-.717-.229c-.456-.188-.794-.47-1.025-.848l-.341.21c.28.455.688.79 1.214 1.008l.152-.37ZM6.534 20.4a3.011 3.011 0 0 1-.436-1.261l-.398.044c.057.51.222.986.493 1.427l.341-.21Zm-.436-1.257c-.04-.451.015-.898.167-1.341l-.38-.13c-.167.484-.23.997-.185 1.507l.398-.036Zm.168-1.343c.15-.45.389-.833.716-1.151l-.278-.288a3.217 3.217 0 0 0-.819 1.313l.381.126Zm.712-1.147c.324-.291.713-.5 1.134-.611l-.105-.386a3.125 3.125 0 0 0-1.297.7l.268.297Zm1.137-.612a6.33 6.33 0 0 1 1.536-.232l-.014-.4c-.552.016-1.1.1-1.633.248l.111.384Zm1.536-.232c.31-.01.621 0 .932.031l.04-.398a7.395 7.395 0 0 0-.986-.033l.014.4Zm.932.031c.322.031.627.083.916.155l.097-.388a6.636 6.636 0 0 0-.973-.165l-.04.398Zm.917.154c.299.072.569.166.812.277l.167-.364a4.848 4.848 0 0 0-.885-.3l-.094.387Zm.815.278c.252.111.465.24.64.387l.256-.308a3.076 3.076 0 0 0-.735-.445l-.161.366Zm.646.392c.122.093.248.222.38.394l.317-.243a2.513 2.513 0 0 0-.453-.468l-.244.317Zm.383.4c.125.153.22.32.288.502l.375-.138c-.083-.224-.2-.43-.353-.617l-.31.253Zm.289.506c.06.143.078.3.053.452l.394.07a1.23 1.23 0 0 0-.074-.668l-.373.146Zm.052.464c-.013.103-.076.211-.245.318l.213.339c.237-.15.398-.352.429-.61l-.397-.047Zm-.245.318a.628.628 0 0 1-.375.113l-.027.4c.211.014.418-.051.615-.174l-.213-.339Zm-.36.115a1.095 1.095 0 0 1-.366-.122l-.19.352c.159.085.325.141.499.166l.057-.396Zm-.356-.116c-.13-.08-.256-.17-.377-.272l-.256.308c.135.112.276.214.423.305l.21-.341Zm-.377-.272a22.421 22.421 0 0 0-.355-.29l-.25.312c.106.084.222.18.35.286l.255-.308Zm-.36-.296c-.318-.235-.706-.389-1.157-.467l-.07.394c.403.07.73.204.988.396l.238-.322.001-.001Zm-1.157-.467a4.386 4.386 0 0 0-1.258-.05l.046.398c.352-.04.731-.026 1.142.046l.07-.394Zm-1.262-.05a3.308 3.308 0 0 0-.698.171l.138.376c.188-.07.393-.12.614-.15l-.054-.397Zm-.698.171c-.223.082-.42.195-.589.34l.26.304a1.51 1.51 0 0 1 .467-.268l-.138-.376Zm-.594.345a1.66 1.66 0 0 0-.384.546l.366.162c.075-.17.172-.306.289-.414l-.271-.294Zm-.385.55a1.5 1.5 0 0 0-.095.72l.398-.037a1.11 1.11 0 0 1 .066-.53l-.37-.152.001-.001Zm-.095.713c.012.202.07.385.181.538l.324-.236a.605.605 0 0 1-.106-.326l-.399.024Zm.188.547c.111.135.241.247.39.334l.202-.346a1.035 1.035 0 0 1-.282-.242l-.31.254Zm.396.337c.153.082.317.147.492.193l.103-.386a1.873 1.873 0 0 1-.405-.16l-.19.353Zm.492.193c.168.045.336.079.505.101l.053-.396a3.631 3.631 0 0 1-.455-.091l-.103.386Zm.505.101c.484.065.968.113 1.453.146l.027-.4a21.8 21.8 0 0 1-1.427-.142l-.053.396Zm1.453.146c.459.03.908.132 1.348.306l.147-.372a4.854 4.854 0 0 0-1.468-.334l-.027.4Zm1.35.307c.447.173.825.405 1.135.695l.273-.292a3.872 3.872 0 0 0-1.265-.777l-.144.374h.001Zm1.135.695c.305.286.521.63.65 1.034l.38-.12a2.772 2.772 0 0 0-.757-1.206l-.273.292Zm12.383-4.93-.197.04.001.003.196-.043Zm.016.752-.198-.033v.007l.198.026Zm-2 6.176.186.072.002-.005-.188-.067Zm-.768 1.984-.18-.09v.003l.18.087Zm-.576.912-.156-.126-.003.004.159.122Zm-1.632.704-.056.192.007.002.049-.194Zm-.688-.384-.138.145.004.004.134-.149Zm-.56-.704-.175.097.004.008.171-.105Zm-.784-1.744-.188.07v.002l.188-.072Zm-.288-.736.184-.078-.003-.005-.181.083Zm-1.712-4.624-.19.066.002.005.188-.071Zm-.256-.768-.191.06.19-.06h.001Zm-.192-.912-.2.014v.007l.2-.021Zm.112-.832.186.073v-.003l-.186-.07Zm.608-.528.059.191.004-.001-.063-.19Zm.192-.048.032.197.012-.002.01-.003-.054-.192Zm.208-.048v-.2h-.017l-.016.003.033.197Zm.416.096-.1.174.012.006.013.006.075-.186Zm.16.08-.103.171.013.009.015.006.075-.186Zm.144.096.156-.125-.007-.009-.008-.007-.141.141Zm.112.16-.172.103.007.011.008.01.157-.124Zm.128.16.183-.079-.01-.025-.017-.02-.156.124Zm.08.208-.19.063.007.021.011.019.172-.103Zm.08.16.192-.055-.003-.01-.004-.01-.185.075Zm.08.208-.18.09.004.006.004.007.172-.103Zm.08.16.188-.067-.003-.007-.185.074Zm2.4 6.848-.19.066.19.542.189-.543-.19-.065h.001Zm2.272-6.56-.186-.076-.003.01.189.066Zm.112-.272.184.076.001-.002-.185-.074Zm.064-.16.186.074.003-.01-.19-.064h.001Zm.064-.208-.186-.074-.004.01-.003.01.193.054Zm.064-.16-.18-.09-.003.008-.003.008.186.074Zm.112-.192.166.111.005-.008-.171-.103Zm.096-.16-.167-.111-.005.008.172.103Zm.128-.176.156.125.004-.005-.16-.12Zm.112-.112-.103-.171-.01.005-.007.006.12.16Zm.368-.16-.029-.198h-.004l.033.198Zm.192-.016.032-.197-.016-.003h-.016v.2Zm.192.048-.064.19.017.005.018.003.029-.198Zm.208.048-.064.19.013.003.051-.193Zm.448.272-.16.12.006.008.154-.128Zm.012.475c.048.22.053.444.014.676l.395.066c.046-.28.04-.556-.018-.828l-.391.086Zm.013.683c-.03.236-.076.448-.136.638l.381.12c.068-.215.119-.451.152-.706l-.397-.052Zm-.137.64c-.127.413-.276.876-.446 1.387l.38.126c.17-.513.32-.978.449-1.396l-.383-.117Zm-.446 1.387-.512 1.536.38.126.512-1.536-.38-.126Zm-.512 1.536c-.17.511-.336.995-.495 1.453l.377.133c.16-.46.327-.947.498-1.46l-.38-.126Zm-.495 1.452-.4 1.12.377.134.4-1.12-.377-.134Zm-.398 1.115c-.108.281-.221.599-.34.953l.38.126c.117-.35.228-.661.333-.935l-.373-.144Zm-.34.953a7.672 7.672 0 0 1-.42 1.014l.357.178c.175-.35.323-.704.443-1.066l-.38-.126Zm-.422 1.016c-.15.311-.335.604-.551.873l.311.252c.234-.29.434-.607.6-.95l-.36-.175Zm-.554.877c-.193.25-.426.431-.702.545l.153.37a2.09 2.09 0 0 0 .866-.671l-.317-.244Zm-.702.545c-.28.116-.518.138-.723.087l-.097.388c.308.077.635.035.973-.105l-.153-.37Zm-.715.089a1.56 1.56 0 0 1-.611-.341l-.267.298c.225.2.481.344.766.427l.112-.384Zm-.607-.337a3.262 3.262 0 0 1-.527-.664l-.341.21c.177.29.376.538.593.744l.275-.29Zm-.523-.656a9.381 9.381 0 0 1-.423-.862l-.367.158c.13.305.277.604.44.898l.35-.194Zm-.423-.862c-.122-.284-.238-.57-.349-.857l-.374.144c.108.28.227.571.356.871l.367-.158Zm-.348-.854c-.107-.29-.204-.538-.291-.745l-.369.156c.084.199.179.441.285.727l.375-.138Zm-.294-.75a22.304 22.304 0 0 1-.887-2.284l-.38.125c.268.818.57 1.592.904 2.325l.363-.166Zm-.887-2.284a56.676 56.676 0 0 0-.82-2.328l-.374.142c.277.733.548 1.503.814 2.311l.38-.125Zm-.818-2.323a31.415 31.415 0 0 1-.254-.763l-.38.122c.095.3.18.558.256.773l.378-.132Zm-.253-.761a4.592 4.592 0 0 1-.185-.874l-.398.042c.033.313.101.631.201.951l.382-.119Zm-.184-.867c-.02-.285.015-.532.099-.745l-.373-.146c-.11.293-.152.607-.125.919l.399-.028Zm.099-.748c.07-.187.218-.325.481-.407l-.119-.382c-.356.11-.614.324-.736.649l.374.14Zm.485-.408a.97.97 0 0 1 .161-.04l-.065-.395a1.32 1.32 0 0 0-.223.055l.127.38Zm.183-.046c.07-.02.131-.034.186-.043l-.065-.394a2.082 2.082 0 0 0-.23.053l.109.384Zm.154-.04c.065 0 .123.005.175.013l.065-.394c-.08-.013-.16-.02-.24-.019v.4Zm.175.013c.05.01.098.03.141.057l.199-.348a.835.835 0 0 0-.275-.103l-.065.394Zm.166.069c.046.018.09.04.132.066l.206-.343a1.321 1.321 0 0 0-.19-.095l-.148.372Zm.16.08c.027.01.053.027.077.051l.283-.282a.627.627 0 0 0-.211-.14l-.149.371Zm.062.035c.038.047.07.093.097.138l.343-.206a1.637 1.637 0 0 0-.127-.182l-.313.25Zm.112.159.128.161.313-.249-.128-.161-.313.249Zm.1.115c.031.07.056.134.075.192l.38-.126a2.896 2.896 0 0 0-.087-.224l-.368.158Zm.093.232a.934.934 0 0 1 .066.131l.371-.148a1.33 1.33 0 0 0-.094-.189l-.343.206Zm.06.112c.024.085.055.166.093.242l.357-.178a1.01 1.01 0 0 1-.066-.174l-.384.11Zm.1.256a.934.934 0 0 1 .066.131l.371-.148a1.33 1.33 0 0 0-.094-.189l-.343.206Zm.063.124.096.272.377-.133-.096-.273-.377.134Zm.096.272 2.303 6.575.378-.132-2.304-6.576-.377.133Zm2.681 6.575 2.273-6.56-.378-.132-2.272 6.561.378.13-.001.001Zm2.269-6.55.111-.272-.37-.152-.112.272.371.152Zm.112-.274.016-.04.016-.04.033-.08-.372-.148-.016.04-.016.04a1.568 1.568 0 0 0-.032.08l.371.148Zm.068-.17c.024-.072.046-.144.067-.217l-.385-.109a3.459 3.459 0 0 1-.061.199l.38.126-.001.001Zm.06-.198.064-.16-.371-.148-.064.16.371.148Zm.057-.145c.028-.056.062-.112.1-.17l-.333-.222c-.046.069-.087.14-.124.214l.357.178Zm.105-.178.096-.16L23.67 16l-.096.16.343.206v.002Zm.091-.152c.04-.06.08-.114.118-.162l-.313-.25a2.641 2.641 0 0 0-.138.19l.333.222Zm.122-.167a.353.353 0 0 1 .072-.072l-.24-.32a.75.75 0 0 0-.152.152l.32.24Zm.055-.06c.05-.03.093-.055.13-.073l-.179-.358a2.366 2.366 0 0 0-.157.088l.206.343Zm.13-.073a.627.627 0 0 1 .167-.062l-.065-.394a1.005 1.005 0 0 0-.281.098l.179.358Zm.163-.061c.054-.008.11-.013.164-.014v-.4c-.066 0-.14.007-.22.018l.056.396Zm.13-.017c.054.01.108.024.162.041l.127-.38a1.476 1.476 0 0 0-.223-.055l-.066.394Zm.197.049c.064.01.122.023.173.04l.127-.38a1.379 1.379 0 0 0-.243-.056l-.057.396Zm.186.043c.172.046.277.117.338.2l.32-.241c-.13-.174-.324-.284-.556-.345l-.102.386Zm.345.207a.76.76 0 0 1 .165.343l.393-.078a1.16 1.16 0 0 0-.25-.521l-.308.256Zm10.55 8.976.191.061v-.002l-.191-.059Zm-.431.864.162.117.002-.003-.164-.114Zm-.784.704-.105-.17-.006.004.11.166h.001Zm-.576.272.057.192.006-.002-.063-.19Zm-.688.16-.034-.197-.01.002.044.195Zm-.704.096-.01-.2h-.008l.018.2Zm-.656.016.01-.2h-.004l-.006.2Zm-2.336-.688-.12.16.004.003.116-.163Zm-1.36-1.616-.18.087v.002l.18-.089Zm-.608-2.08-.199.022v.004l.199-.026Zm.16-3.472-.194-.048-.001.004.195.044Zm.496-1.36-.178-.091-.002.003.18.088Zm.816-1.184-.146-.137-.002.002.148.135Zm2.528-1.12.017.2.004-.001-.021-.199Zm2.832.512-.095.176.002.001.093-.177Zm1.008.896.17-.105-.003-.005-.167.11Zm.448 2.144-.197-.035v.002l.197.033Zm-.336.672.113.165.007-.005-.12-.16Zm-.56.144-.031.198h.01l.021-.198Zm-.592-.256-.128.155.01.007.118-.162Zm-.368-.56.192-.055v-.003l-.192.058Zm-.272-.672-.18.09.003.003.177-.093Zm-2.128-.704-.061-.19h-.002l.063.19Zm-.736.4-.123-.158-.003.003.126.155Zm-.56.624.165.113.004-.006-.169-.107Zm-.416.88.19.06.001-.003-.191-.057Zm-.256 1.984-.2.006v.007l.2-.013Zm.128.96-.196.04v.004l.196-.044Zm.544 1.472-.177.094.003.004.174-.098Zm.384.464-.131.151.01.009.12-.16h.001Zm.56.32-.078.184.009.004.069-.188Zm1.984-.192.109.168.006-.005-.115-.163Zm.64-1.008-.196-.041-.002.01.198.031Zm.064-.656h.2v-.2h-.2v.2Zm-.368 0-.02.199.01.001h.01v-.2Zm-.928-.144.071-.187-.008-.003-.063.19Zm-.432-.304.164-.114-.007-.01-.01-.01-.147.134Zm-.16-.608-.197-.033-.003.016v.017h.2Zm.032-.192-.188-.07-.006.018-.004.02.198.032Zm.208-.32-.128-.154-.014.012-.012.014.154.128Zm.304-.128.045.195.009-.002.01-.003-.064-.19Zm.192-.048.033.197.015-.002.015-.005-.063-.19Zm.224-.048.025.199.008-.002-.033-.197Zm1.888-.016v.2h.018l-.018-.2Zm.4.048-.055.192.008.003.008.001.039-.196Zm.368.16.16-.12-.013-.017-.015-.013-.132.15Zm.176.272.188-.068-.003-.006-.185.074Zm.08.352-.2.018.001.007.002.008.197-.033Zm.016.208h-.2v.017l.002.016.198-.033Zm-.184.832c0 .313-.016.632-.047.957l.398.039c.032-.337.049-.67.049-.996h-.4Zm-.047.957c-.03.306-.092.607-.184.904l.381.118c.1-.322.167-.65.201-.983l-.398-.039Zm-.184.902c-.09.278-.224.549-.406.811l.329.228c.197-.282.352-.59.458-.917l-.381-.122Zm-.404.808a2.466 2.466 0 0 1-.726.651l.21.34c.349-.214.631-.465.841-.757l-.325-.234Zm-.732.655a2.213 2.213 0 0 1-.528.248l.126.38c.237-.08.446-.177.624-.296l-.222-.332Zm-.523.246c-.218.065-.44.117-.664.155l.068.394c.252-.044.49-.099.711-.165l-.115-.384Zm-.674.157c-.223.05-.448.08-.67.091l.019.4c.247-.011.493-.045.74-.101l-.089-.39Zm-.678.091c-.227.02-.436.026-.628.016l-.02.4c.213.011.441.005.684-.017l-.036-.399Zm-.632.016c-.932-.031-1.67-.253-2.226-.65l-.232.325c.638.455 1.458.692 2.445.725l.013-.4Zm-2.223-.648a4.308 4.308 0 0 1-1.3-1.545l-.358.178c.333.667.82 1.245 1.419 1.687l.239-.32Zm-1.3-1.543a6.514 6.514 0 0 1-.589-2.018l-.397.05c.099.767.308 1.482.627 2.142l.359-.174Zm-.588-2.015c-.084-.747-.1-1.454-.048-2.122l-.399-.032c-.053.733-.037 1.469.049 2.198l.398-.044Zm-.048-2.122c.031-.395.099-.822.204-1.284l-.39-.088c-.103.44-.174.889-.213 1.34l.4.032h-.001Zm.203-1.28c.114-.455.274-.895.482-1.32l-.36-.176c-.22.45-.39.917-.51 1.4l.388.096Zm.48-1.317c.21-.413.475-.797.786-1.14l-.296-.27a5.63 5.63 0 0 0-.846 1.228l.356.182Zm.784-1.138c.31-.331.676-.581 1.097-.752l-.15-.37c-.47.189-.893.478-1.239.848l.292.274Zm1.097-.752c.396-.162.83-.264 1.302-.305l-.035-.399a4.803 4.803 0 0 0-1.417.334l.15.37Zm1.306-.306a5.02 5.02 0 0 1 1.416.046l.07-.394a5.412 5.412 0 0 0-1.528-.05l.042.398Zm1.416.046c.47.082.904.23 1.3.443l.19-.352a4.655 4.655 0 0 0-1.42-.485l-.07.394Zm1.302.444c.399.21.708.486.934.829l.334-.22a2.857 2.857 0 0 0-1.082-.963l-.186.354Zm.93.824c.158.256.284.571.377.95l.388-.094c-.1-.41-.24-.767-.424-1.066l-.341.21Zm.377.95c.09.37.103.721.045 1.054l.394.07c.069-.393.051-.8-.05-1.218l-.39.094h.001Zm.045 1.056c-.049.295-.147.46-.259.545l.24.32c.229-.172.356-.454.413-.8l-.394-.065Zm-.253.54a.61.61 0 0 1-.425.11l-.042.397c.25.026.485-.033.694-.177l-.227-.33Zm-.415.111a1.177 1.177 0 0 1-.506-.22l-.235.324c.213.154.441.254.679.292l.062-.396Zm-.496-.212a.903.903 0 0 1-.303-.461l-.384.11c.075.263.22.485.432.66l.255-.309Zm-.303-.464a4.049 4.049 0 0 0-.287-.707l-.354.186c.1.19.186.403.258.637l.383-.116Zm-.285-.703a1.505 1.505 0 0 0-.57-.61l-.211.34c.196.122.335.272.423.448l.358-.178Zm-.57-.61a1.964 1.964 0 0 0-.906-.3l-.03.398c.254.02.495.098.725.242l.211-.34Zm-.906-.3a2.306 2.306 0 0 0-.892.105l.122.38c.239-.077.49-.107.74-.087l.03-.399v.001Zm-.894.105a2.686 2.686 0 0 0-.796.432l.245.316c.203-.16.432-.285.677-.368l-.126-.38Zm-.799.435c-.24.194-.442.418-.603.672l.338.214c.137-.215.309-.407.517-.576l-.252-.31Zm-.6.666a3.409 3.409 0 0 0-.442.936l.383.114c.09-.3.22-.574.39-.824l-.33-.225-.001-.001Zm-.441.934c-.102.33-.174.668-.216 1.01l.397.05a5.49 5.49 0 0 1 .2-.941l-.381-.119Zm-.216 1.01c-.044.345-.06.692-.05 1.04l.4-.013c-.01-.331.006-.657.047-.976l-.397-.051Zm-.049 1.046c.022.34.066.669.132.988l.392-.081a6.785 6.785 0 0 1-.125-.933l-.399.026Zm.133.99c.12.54.308 1.048.562 1.523l.353-.188a5.596 5.596 0 0 1-.525-1.422l-.391.088.001-.001Zm.565 1.527c.108.192.25.364.427.517l.262-.302a1.552 1.552 0 0 1-.34-.411l-.349.196Zm.437.526c.184.138.386.252.603.344l.155-.369a2.433 2.433 0 0 1-.517-.295l-.241.32Zm.612.348c.22.08.449.132.689.155l.039-.398a2.338 2.338 0 0 1-.59-.133l-.138.376Zm.689.155c.247.023.484.006.71-.054l-.1-.387c-.186.048-.38.063-.571.043l-.039.398Zm.71-.054c.302-.078.558-.18.763-.313l-.218-.336c-.2.12-.418.21-.645.262l.1.387Zm.769-.318c.2-.141.364-.31.486-.505l-.339-.212a1.365 1.365 0 0 1-.377.39l.23.327Zm.486-.505c.122-.194.2-.406.236-.635l-.395-.062a1.284 1.284 0 0 1-.18.485l.339.212Zm.234-.625c.046-.217.069-.444.069-.681h-.4c0 .211-.02.41-.06.599l.391.082Zm.069-.681v-.016h-.4v.016h.4Zm-.2-.216h-.368v.4h.369l-.001-.4Zm-.348.001a2.79 2.79 0 0 0-.26-.017v.4c.043 0 .115.005.22.015l.04-.398Zm-.26-.017c-.21 0-.415-.038-.617-.115l-.142.374c.246.094.5.141.759.141v-.4Zm-.625-.118a.623.623 0 0 1-.331-.228l-.329.228c.126.18.309.305.534.38l.126-.38Zm-.348-.248a.419.419 0 0 1-.107-.298h-.4c0 .216.069.41.212.566l.295-.268Zm-.107-.298v-.177l-.4-.001v.178h.4Zm-.003-.143.032-.192-.395-.066c-.01.064-.019.128-.031.192l.394.066Zm.022-.155c.02-.053.072-.14.175-.262l-.308-.256c-.1.112-.182.24-.242.378l.375.14Zm.149-.236a.57.57 0 0 1 .221-.087l-.091-.39a.929.929 0 0 0-.386.17l.256.307Zm.24-.092a1.06 1.06 0 0 1 .16-.04l-.065-.395a1.46 1.46 0 0 0-.222.055l.127.38Zm.191-.048a.97.97 0 0 1 .186-.039l-.05-.397c-.089.01-.177.029-.262.056l.126.38Zm.194-.041a.924.924 0 0 1 .175-.013v-.4c-.08 0-.161.006-.241.019l.066.394Zm.175-.013h.222l.002-.4h-.224v.4Zm.222 0h1.458v-.4h-1.456l-.002.4Zm1.476 0a.91.91 0 0 1 .327.04l.11-.384a1.301 1.301 0 0 0-.473-.055l.036.399Zm.343.044c.14.028.225.07.275.114l.264-.3a.98.98 0 0 0-.461-.206l-.078.392Zm.247.084.096.128.32-.24-.096-.128-.32.24Zm.096.128c.02.028.039.06.054.098l.371-.148a.825.825 0 0 0-.105-.19l-.32.24Zm.052.092c.037.103.059.203.068.302l.399-.036a1.594 1.594 0 0 0-.091-.402l-.376.136Zm.071.317c.01.052.013.11.013.175h.4c0-.08-.006-.16-.019-.24l-.394.065Zm.016.208a.903.903 0 0 1 .013.143h.4c0-.066-.007-.136-.019-.209l-.395.066h.001Zm.013.143v.656h.4v-.656h-.4Z"/>
        </g>
    </g>
    <defs>
        <linearGradient id="paint0_linear_3_57" x1="35" x2="35" y1="29" y2="41" gradientUnits="userSpaceOnUse">
            <stop stop-color="#000D2F"/>
            <stop offset="1" stop-color="#0047FF" stop-opacity=".3"/>
        </linearGradient>
        <linearGradient id="paint1_linear_3_57" x1="21" x2="21" y1="15" y2="29" gradientUnits="userSpaceOnUse">
            <stop stop-color="#00000A" stop-opacity="0"/>
            <stop offset=".885" stop-color="#00D3E0"/>
        </linearGradient>
        <clipPath id="clip0_3_57">
            <path fill="#fff" d="M0 0h42v42H0z"/>
        </clipPath>
    </defs>
</svg>
